<svg viewBox="0 0 175 48" fill="none" xmlns="http://www.w3.org/2000/svg">
<path d="M19.7522 10.3155V9.8086C19.817 5.28171 16.0045 1.46931 11.4777 1.53401H1.52334V16.1581L0 17.6922L1.52334 19.2264V31.9119H12.9228C14.4057 31.9119 15.7592 31.5479 16.9833 30.8308C18.2073 30.1028 19.1833 29.1268 19.8978 27.9027C20.6258 26.6786 20.9898 25.3251 20.9898 23.8288V22.4618C20.9898 19.7413 19.8574 17.2959 17.997 15.565C19.0998 14.1009 19.7522 12.281 19.7522 10.3155ZM7.59784 7.60852H11.2539C11.9171 7.60852 12.4887 7.84309 12.9579 8.32301C13.4405 8.79214 13.6723 9.36373 13.6723 10.027V10.3128C13.6723 11.0542 13.4108 11.6932 12.8797 12.2244C12.3593 12.7447 11.7203 13.0063 10.9681 13.0063H7.59784V7.60852ZM14.4947 23.1844C14.4947 23.9123 14.2332 24.5379 13.7128 25.0582C13.2059 25.5786 12.5804 25.8401 11.8389 25.8401H8.01306V19.0862H11.1218C12.0465 19.0862 12.8392 19.4124 13.5025 20.0757C14.1657 20.7389 14.492 21.5343 14.492 22.4699V23.1844H14.4947Z" fill="#734434"/>
<path d="M36.8757 19.0729C38.4098 18.3449 39.6474 17.2395 40.5964 15.7431C41.5455 14.2467 42.0146 12.6344 42.0146 10.9034V9.71982C42.0658 5.25764 38.2939 1.48298 33.829 1.53421H23.783V16.1853L22.2866 17.6951L23.783 19.205V31.9175H29.8602V19.7631H31.0708L35.9374 31.9148H42.0146L36.8757 19.0729ZM35.9374 10.4073C35.9374 10.9008 35.808 11.4103 35.5465 11.9415C35.2984 12.4753 34.9614 12.904 34.5435 13.2303C34.166 13.5295 33.7616 13.6859 33.3329 13.6859H29.8575V7.60871H33.4758C34.1525 7.60871 34.7241 7.85676 35.2067 8.33668C35.6894 8.8193 35.9347 9.39089 35.9347 10.0676V10.4073H35.9374Z" fill="#734434"/>
<path d="M66.4879 31.9145L62.9883 18.5253L63.8079 17.6922L62.4032 16.274L58.553 1.53125H51.241L47.4286 16.1554L45.9187 17.6895L46.7896 18.5738L43.3142 31.9119H49.3914L50.7584 25.7699H59.0464L60.4134 31.9119H66.4879V31.9145ZM51.8261 20.9977L54.897 8.47932L57.9814 20.9977H51.8261Z" fill="#734434"/>
<path d="M83.0398 2.75532C81.6728 1.93568 80.1522 1.53125 78.4859 1.53125H69.3135V16.1554L67.7902 17.6895L69.3135 19.2236V31.9092H78.4859C80.1522 31.9092 81.6728 31.5047 83.0398 30.6851C84.4067 29.8655 85.4987 28.7735 86.3183 27.4065C87.138 26.0396 87.5424 24.5189 87.5424 22.8527V10.5877C87.5424 8.92149 87.138 7.40084 86.3183 6.03388C85.4987 4.66691 84.4067 3.57496 83.0398 2.75532ZM81.4652 22.9632C81.4652 23.7559 81.1794 24.4461 80.6186 25.0069C80.0578 25.5677 79.3945 25.84 78.6019 25.84H75.388V19.229L76.9114 17.6949L75.388 16.1607V7.60845H78.6019C79.3945 7.60845 80.0605 7.89424 80.6186 8.45505C81.1794 9.01586 81.4652 9.67912 81.4652 10.4718V22.9632Z" fill="#734434"/>
<path d="M108.594 22.8581V10.5877C108.594 8.92149 108.19 7.40084 107.37 6.03388C106.55 4.66691 105.458 3.57496 104.092 2.75532C102.725 1.93568 101.204 1.53125 99.5377 1.53125H90.3653V16.1554L88.8419 17.6895L90.3653 19.2236V31.9092H99.5377C101.204 31.9092 102.725 31.5047 104.092 30.6851C105.458 29.8655 106.55 28.7735 107.37 27.4065C108.19 26.0396 108.594 24.5243 108.594 22.8581ZM102.517 22.9632C102.517 23.7559 102.231 24.4461 101.67 25.0069C101.11 25.5677 100.446 25.84 99.6536 25.84H96.4398V19.229L97.9631 17.6949L96.4398 16.1607V7.60845H99.6536C100.446 7.60845 101.112 7.89424 101.67 8.45505C102.231 9.01586 102.517 9.67912 102.517 10.4718V22.9632Z" fill="#734434"/>
<path d="M144.208 0.908691C142.45 0.908691 140.865 1.33738 139.42 2.19747C137.988 3.04407 136.842 4.18725 135.998 5.63241C135.152 7.06408 134.723 8.65213 134.723 10.3939V16.1583L133.199 17.6924L134.723 19.2266V23.0551C134.723 24.7996 135.152 26.3849 135.998 27.8301C136.845 29.2618 137.988 30.4076 139.42 31.265C140.865 32.1116 142.45 32.5403 144.208 32.5403C145.952 32.5403 147.538 32.1116 148.969 31.265C150.415 30.4049 151.558 29.2618 152.404 27.8301C153.264 26.3849 153.693 24.7996 153.693 23.0551V22.0522H147.371V23.0551C147.371 23.926 147.058 24.6675 146.435 25.293C145.823 25.905 145.082 26.2178 144.211 26.2178C143.34 26.2178 142.585 25.905 141.973 25.293C141.361 24.6675 141.048 23.926 141.048 23.0551V19.2293L142.558 17.6951L141.048 16.161V10.3939C141.048 9.523 141.361 8.78155 141.973 8.16952C142.585 7.544 143.34 7.23394 144.211 7.23394C145.082 7.23394 145.823 7.5467 146.435 8.16952C147.061 8.78155 147.371 9.523 147.371 10.3939V11.1623H153.693V10.3939C153.693 7.77857 152.639 5.4221 150.908 3.69385C149.177 1.9629 146.823 0.908691 144.208 0.908691Z" fill="#734434"/>
<path d="M174.745 1.53125H168.668L165.012 7.60845L162.593 11.6554V1.53125H156.516V16.158L154.993 17.6922L156.516 19.229V31.9145H162.593V21.7904L163.801 19.7628L168.668 31.9145H174.745L167.446 13.6856L174.745 1.53125Z" fill="#734434"/>
<path d="M47.0457 43.2141C46.9055 43.1494 46.7464 43.1117 46.59 43.0686C46.6035 43.0632 46.6197 43.0605 46.6332 43.0551C47.016 42.869 47.318 42.6021 47.5445 42.2543C47.771 41.9092 47.8842 41.4832 47.8842 40.9763C47.8842 40.2295 47.5957 39.6417 47.0187 39.2103C46.4417 38.7789 45.614 38.5632 44.5409 38.5632H40.3564V47.8893H44.8051C45.9861 47.8893 46.8758 47.6682 47.4771 47.2288C48.0756 46.7893 48.3776 46.1692 48.3776 45.3711C48.3776 44.8373 48.259 44.3924 48.019 44.0311C47.779 43.6725 47.4555 43.4002 47.0457 43.2141ZM41.6911 39.6417H44.4223C45.0963 39.6417 45.6221 39.7657 45.9942 40.0138C46.3662 40.2618 46.555 40.6366 46.555 41.1327C46.555 41.6315 46.3689 42.0036 45.9942 42.2516C45.6221 42.4997 45.0963 42.6264 44.4223 42.6264H41.6911V39.6417ZM46.4471 46.4388C46.0562 46.6868 45.4927 46.8109 44.7539 46.8109H41.6884V43.7076H44.7539C45.49 43.7076 46.0562 43.8316 46.4471 44.0796C46.8381 44.3277 47.0322 44.724 47.0322 45.2659C47.0322 45.7971 46.8381 46.188 46.4471 46.4388Z" fill="#734434"/>
<path d="M53.2549 38.5632L49.03 47.8893H50.4024L51.4269 45.5571H56.3852L57.4098 47.8893H58.8091L54.5734 38.5632H53.2549ZM51.8961 44.4921L53.9074 39.9167L55.9188 44.4921H51.8961Z" fill="#734434"/>
<path d="M65.9271 44.6647C66.5041 44.4059 66.949 44.0365 67.2591 43.5512C67.5691 43.0659 67.7255 42.4862 67.7255 41.8121C67.7255 41.1381 67.5691 40.5557 67.2591 40.0677C66.949 39.5797 66.5041 39.2076 65.9271 38.9488C65.3502 38.69 64.6519 38.5632 63.8349 38.5632H60.1978V47.8893H61.5297V45.0503H63.8349C64.0425 45.0503 64.2178 45.0179 64.4092 45.0017L66.4313 47.8893H67.8846L65.6575 44.7456C65.7438 44.7159 65.8463 44.7024 65.9271 44.6647ZM63.7945 43.9205H61.5297V39.7226H63.7945C64.6465 39.7226 65.2935 39.9059 65.733 40.2699C66.1725 40.6339 66.3936 41.1489 66.3936 41.8148C66.3936 42.4808 66.1752 42.9985 65.733 43.3678C65.2908 43.7372 64.6465 43.9205 63.7945 43.9205Z" fill="#734434"/>
<path d="M76.5717 43.2141C76.4315 43.1494 76.2724 43.1117 76.116 43.0686C76.1295 43.0632 76.1457 43.0605 76.1592 43.0551C76.542 42.869 76.844 42.6021 77.0705 42.2543C77.297 41.9092 77.4102 41.4832 77.4102 40.9763C77.4102 40.2295 77.1217 39.6417 76.5447 39.2103C75.9677 38.7789 75.14 38.5632 74.0669 38.5632H69.8824V47.8893H74.3312C75.5121 47.8893 76.4018 47.6682 77.0031 47.2288C77.6016 46.7893 77.9036 46.1692 77.9036 45.3711C77.9036 44.8373 77.785 44.3924 77.545 44.0311C77.305 43.6725 76.9815 43.4002 76.5717 43.2141ZM71.2171 39.6417H73.9483C74.6223 39.6417 75.1481 39.7657 75.5202 40.0138C75.8922 40.2618 76.081 40.6366 76.081 41.1327C76.081 41.6315 75.8949 42.0036 75.5202 42.2516C75.1481 42.4997 74.6223 42.6264 73.9483 42.6264H71.2171V39.6417ZM75.9731 46.4388C75.5822 46.6868 75.0187 46.8109 74.2799 46.8109H71.2144V43.7076H74.2799C75.016 43.7076 75.5822 43.8316 75.9731 44.0796C76.3641 44.3277 76.5582 44.724 76.5582 45.2659C76.5582 45.7971 76.3641 46.188 75.9731 46.4388Z" fill="#734434"/>
<path d="M81.3007 43.721H85.9786V42.5859H81.3007V39.7226H86.5501V38.5632H79.9688V47.8893H86.7362V46.73H81.3007V43.721Z" fill="#734434"/>
<path d="M94.6253 44.6647C95.2022 44.4059 95.6471 44.0365 95.9572 43.5512C96.2672 43.0659 96.4236 42.4862 96.4236 41.8121C96.4236 41.1381 96.2672 40.5557 95.9572 40.0677C95.6471 39.5797 95.2022 39.2076 94.6253 38.9488C94.0483 38.69 93.35 38.5632 92.533 38.5632H88.8959V47.8893H90.2278V45.0503H92.533C92.7406 45.0503 92.9159 45.0179 93.1073 45.0017L95.1294 47.8893H96.5827L94.3556 44.7456C94.4419 44.7159 94.5444 44.7024 94.6253 44.6647ZM92.4926 43.9205H90.2278V39.7226H92.4926C93.3446 39.7226 93.9917 39.9059 94.4311 40.2699C94.8706 40.6339 95.0917 41.1489 95.0917 41.8148C95.0917 42.4808 94.8733 42.9985 94.4311 43.3678C93.989 43.7372 93.3473 43.9205 92.4926 43.9205Z" fill="#734434"/>
<path d="M103.798 43.4004C103.463 43.2143 103.097 43.0633 102.692 42.9474C102.288 42.8315 101.886 42.7263 101.487 42.6346C101.088 42.5403 100.721 42.4378 100.387 42.3219C100.053 42.2059 99.783 42.0523 99.5754 41.8554C99.3678 41.6613 99.2626 41.3971 99.2626 41.0682C99.2626 40.7931 99.3408 40.5451 99.4972 40.3213C99.6536 40.1002 99.899 39.9223 100.236 39.7875C100.573 39.6554 101.004 39.588 101.527 39.588C101.945 39.588 102.374 39.6473 102.819 39.7686C103.264 39.8899 103.684 40.0814 104.083 40.3483L104.523 39.2833C104.132 39.0164 103.671 38.8115 103.137 38.6712C102.603 38.5284 102.067 38.4583 101.525 38.4583C100.708 38.4583 100.034 38.5796 99.5053 38.8249C98.9769 39.0703 98.5859 39.3938 98.3325 39.7983C98.079 40.2027 97.9523 40.6449 97.9523 41.1248C97.9523 41.6236 98.0548 42.028 98.2597 42.3435C98.4646 42.6589 98.7342 42.9097 99.0658 43.0957C99.4002 43.2817 99.7668 43.4354 100.171 43.5567C100.576 43.6754 100.977 43.7805 101.376 43.8695C101.775 43.9585 102.142 44.0636 102.477 44.1823C102.811 44.3036 103.08 44.46 103.288 44.6568C103.496 44.8536 103.601 45.1097 103.601 45.4306C103.601 45.7056 103.52 45.9536 103.361 46.1693C103.202 46.385 102.951 46.5576 102.614 46.6816C102.277 46.8056 101.838 46.8677 101.296 46.8677C100.7 46.8677 100.128 46.7652 99.5781 46.5603C99.0281 46.3554 98.5751 46.0992 98.2192 45.7865L97.7258 46.8245C98.0979 47.1723 98.6102 47.4527 99.2573 47.6711C99.9043 47.8895 100.586 47.9973 101.296 47.9973C102.113 47.9973 102.789 47.876 103.328 47.6307C103.865 47.3853 104.264 47.0618 104.52 46.6573C104.776 46.2529 104.906 45.8161 104.906 45.3443C104.906 44.8563 104.803 44.4573 104.598 44.1445C104.393 43.8317 104.132 43.5864 103.798 43.4004Z" fill="#734434"/>
<path d="M113.544 42.5752H108.19V38.5632H106.858V47.8893H108.19V43.7318H113.544V47.8893H114.876V38.5632H113.544V42.5752Z" fill="#734434"/>
<path d="M125.424 39.8091C124.976 39.3777 124.45 39.046 123.852 38.8088C123.253 38.5742 122.596 38.4556 121.886 38.4556C121.167 38.4556 120.506 38.5769 119.902 38.8169C119.298 39.0568 118.772 39.3911 118.33 39.8225C117.885 40.2539 117.54 40.7581 117.292 41.3351C117.044 41.9121 116.92 42.543 116.92 43.2278C116.92 43.9126 117.044 44.5436 117.292 45.1205C117.54 45.6975 117.888 46.2017 118.33 46.6331C118.775 47.0645 119.301 47.3988 119.91 47.6388C120.519 47.8787 121.177 48.0001 121.889 48.0001C122.598 48.0001 123.256 47.8814 123.855 47.6469C124.453 47.4123 124.979 47.078 125.427 46.6466C125.874 46.2152 126.222 45.711 126.465 45.134C126.71 44.557 126.831 43.9207 126.831 43.2278C126.831 42.5349 126.71 41.9013 126.465 41.3216C126.219 40.7446 125.871 40.2404 125.424 39.8091ZM125.224 44.6514C125.041 45.0882 124.788 45.4656 124.464 45.7919C124.14 46.1154 123.758 46.3662 123.318 46.5441C122.879 46.7221 122.401 46.811 121.886 46.811C121.363 46.811 120.881 46.7221 120.441 46.5441C120.002 46.3662 119.616 46.1154 119.287 45.7919C118.958 45.4683 118.702 45.0882 118.522 44.6514C118.338 44.2173 118.249 43.7401 118.249 43.2251C118.249 42.7101 118.341 42.2356 118.522 41.7988C118.705 41.3648 118.958 40.9846 119.287 40.6583C119.616 40.3348 119.999 40.0841 120.441 39.9061C120.883 39.7282 121.363 39.6392 121.886 39.6392C122.401 39.6392 122.879 39.7282 123.318 39.9061C123.758 40.0841 124.14 40.3348 124.464 40.6583C124.788 40.9819 125.041 41.3621 125.224 41.7988C125.408 42.2356 125.497 42.7101 125.497 43.2251C125.497 43.7401 125.405 44.2173 125.224 44.6514Z" fill="#734434"/>
<path d="M134.596 38.9488C134.019 38.69 133.321 38.5632 132.504 38.5632H128.867V47.8893H130.199V45.0637H132.504C133.321 45.0637 134.019 44.9316 134.596 44.6701C135.173 44.4086 135.618 44.0338 135.928 43.5512C136.238 43.0659 136.395 42.4862 136.395 41.8121C136.395 41.1381 136.238 40.5557 135.928 40.0677C135.618 39.5797 135.173 39.2076 134.596 38.9488ZM134.402 43.3597C133.963 43.7237 133.316 43.9071 132.464 43.9071H130.199V39.7226H132.464C133.316 39.7226 133.963 39.9059 134.402 40.2699C134.842 40.6339 135.063 41.1489 135.063 41.8148C135.063 42.4808 134.844 42.9958 134.402 43.3597Z" fill="#734434"/>
<path d="M129.6 30.4022V16.9563V16.4899V3.04669C129.6 2.52363 129.158 2.09763 128.611 2.09763H127.432L127.195 2.35916C127.025 2.5452 126.78 2.65305 126.521 2.65305C126.138 2.65305 125.828 2.35647 125.828 1.98978V0.970626C125.828 0.434086 125.375 0 124.814 0H121.131H120.633H116.95C116.392 0 115.936 0.434086 115.936 0.970626V1.98978C115.936 2.35647 115.626 2.65305 115.243 2.65305C114.984 2.65305 114.739 2.5452 114.569 2.35916L114.332 2.09763H113.153C112.606 2.09763 112.164 2.52093 112.164 3.04669V16.4899V16.9563V30.3995C112.164 30.9225 112.606 31.3485 113.153 31.3485H114.332L114.569 31.087C114.739 30.901 114.984 30.7931 115.243 30.7931C115.626 30.7931 115.936 31.0897 115.936 31.4564V32.4755C115.936 33.0121 116.389 33.4462 116.95 33.4462H120.633H121.131H124.814C125.373 33.4462 125.828 33.0121 125.828 32.4755V31.4564C125.828 31.0897 126.138 30.7931 126.521 30.7931C126.78 30.7931 127.025 30.901 127.195 31.087L127.432 31.3485H128.611C129.158 31.3485 129.6 30.9252 129.6 30.4022ZM122.294 9.70626C122.294 9.70626 123.062 9.83838 123.156 9.8923C123.307 9.97588 123.399 10.1242 123.383 10.3345C123.369 10.4989 123.283 10.6068 123.159 10.6742C123.057 10.7281 122.294 10.8602 122.294 10.8602C121.951 10.8602 121.673 11.1433 121.673 11.4938V14.5729C121.673 14.7239 121.752 14.8641 121.884 14.9369C122.515 15.282 122.995 15.9291 123.03 16.6948C123.03 16.7136 123.03 16.7487 123.03 16.7649C122.995 17.5306 122.515 18.1777 121.884 18.5228C121.754 18.5929 121.673 18.7358 121.673 18.8868V21.9658C121.673 22.3163 121.951 22.5994 122.294 22.5994C122.294 22.5994 123.057 22.7288 123.159 22.7855C123.283 22.8502 123.367 22.9607 123.383 23.1252C123.402 23.3355 123.307 23.4838 123.156 23.5673C123.062 23.6186 122.294 23.7534 122.294 23.7534C121.951 23.7534 121.673 24.0365 121.673 24.387V24.5353C121.673 24.6836 121.73 24.8238 121.832 24.9289L123.334 26.4577C123.485 26.6113 123.485 26.8594 123.334 27.0104L121.832 28.5391C121.73 28.6443 121.673 28.7845 121.673 28.9328V29.0837C121.673 29.4342 121.951 29.7173 122.294 29.7173H122.79C123.089 29.7173 123.356 29.9384 123.383 30.2404C123.412 30.5801 123.148 30.8659 122.819 30.8659L121.673 30.9711L120.865 31.0762L120.093 30.9711L118.975 30.8659C118.675 30.8659 118.408 30.6448 118.381 30.3429C118.352 30.0031 118.616 29.7173 118.945 29.7173H119.471C119.813 29.7173 120.093 29.4342 120.093 29.0837V28.9328C120.093 28.7845 120.037 28.6443 119.934 28.5391L118.433 27.0104C118.282 26.8567 118.282 26.6086 118.433 26.4577L119.934 24.9289C120.037 24.8238 120.093 24.6836 120.093 24.5353V24.3843C120.093 24.0338 119.816 23.7507 119.471 23.7507C119.471 23.7507 118.718 23.6213 118.616 23.57C118.486 23.5053 118.398 23.3948 118.384 23.2249C118.368 23.0362 118.441 22.896 118.565 22.8097C118.664 22.7396 119.471 22.5967 119.471 22.5967C119.813 22.5967 120.093 22.3136 120.093 21.9631V18.9164C120.093 18.7601 120.01 18.6172 119.872 18.5471C119.209 18.21 118.702 17.5468 118.664 16.7595C118.664 16.7406 118.664 16.7056 118.664 16.6894C118.699 15.8994 119.209 15.2361 119.872 14.9018C120.01 14.8317 120.093 14.6888 120.093 14.5324V11.4884C120.093 11.1379 119.816 10.8548 119.471 10.8548C119.471 10.8548 118.664 10.7119 118.565 10.6418C118.441 10.5556 118.368 10.4154 118.384 10.2266C118.398 10.0568 118.489 9.94622 118.616 9.88152C118.718 9.83029 119.471 9.70087 119.471 9.70087C119.813 9.70087 120.093 9.41777 120.093 9.06727V8.91628C120.093 8.76799 120.037 8.62779 119.934 8.52264L118.433 6.9939C118.282 6.84022 118.282 6.59217 118.433 6.44118L119.934 4.91245C120.037 4.8073 120.093 4.6671 120.093 4.51881V4.36782C120.093 4.01731 119.816 3.73422 119.471 3.73422H118.945C118.616 3.73422 118.352 3.44842 118.381 3.1087C118.408 2.80673 118.675 2.58564 118.975 2.58564L120.093 2.48049L120.865 2.37534L121.673 2.48049L122.819 2.58564C123.148 2.58564 123.412 2.87144 123.383 3.21116C123.356 3.51313 123.089 3.73422 122.79 3.73422H122.294C121.951 3.73422 121.673 4.01731 121.673 4.36782V4.51881C121.673 4.6671 121.73 4.8073 121.832 4.91245L123.334 6.44118C123.485 6.59487 123.485 6.84292 123.334 6.9939L121.832 8.52264C121.73 8.62779 121.673 8.76799 121.673 8.91628V9.06457C121.671 9.42047 121.951 9.70626 122.294 9.70626ZM128.945 21.6126C128.937 23.1737 128.896 24.6296 128.878 25.878C128.859 27.1263 128.813 28.167 128.797 28.895C128.77 29.623 128.754 30.0382 128.754 30.0382C128.754 30.0382 128.737 29.623 128.71 28.895C128.692 28.167 128.648 27.1263 128.63 25.878C128.611 24.6296 128.57 23.1737 128.562 21.6126C128.554 20.0515 128.543 18.388 128.532 16.7244C128.543 15.0609 128.551 13.3946 128.562 11.8362C128.57 10.2752 128.611 8.81922 128.63 7.57089C128.648 6.32255 128.692 5.28182 128.71 4.55385C128.737 3.82589 128.754 3.41067 128.754 3.41067C128.754 3.41067 128.77 3.82589 128.797 4.55385C128.816 5.28182 128.859 6.32255 128.878 7.57089C128.896 8.81922 128.937 10.2752 128.945 11.8362C128.953 13.3973 128.964 15.0609 128.975 16.7244C128.964 18.388 128.953 20.0515 128.945 21.6126Z" fill="#734434"/>
</svg>
