<svg viewBox="0 0 15 16" fill="none" xmlns="http://www.w3.org/2000/svg">
    <path d="M11 1H4C2.067 1 0.5 2.567 0.5 4.5V11.5C0.5 13.433 2.067 15 4 15H11C12.933 15 14.5 13.433 14.5 11.5V4.5C14.5 2.567 12.933 1 11 1Z" stroke="#8D8D8D" stroke-linecap="round" stroke-linejoin="round"/>
    <path d="M10.3001 7.55897C10.3865 8.14154 10.2869 8.73652 10.0157 9.25928C9.74445 9.78204 9.31527 10.206 8.7892 10.4707C8.26314 10.7355 7.66698 10.8277 7.08551 10.7341C6.50405 10.6406 5.9669 10.366 5.55045 9.94958C5.13401 9.53313 4.85948 8.99598 4.76591 8.41452C4.67235 7.83305 4.76451 7.23689 5.02929 6.71083C5.29407 6.18476 5.71799 5.75559 6.24075 5.48434C6.76351 5.21309 7.35849 5.11358 7.94106 5.19997C8.53531 5.28809 9.08546 5.56499 9.51025 5.98978C9.93504 6.41457 10.2119 6.96472 10.3001 7.55897Z" stroke="#8D8D8D" stroke-linecap="round" stroke-linejoin="round"/>
    <path d="M11.35 4.1499H11.357" stroke="#8D8D8D" stroke-linecap="round" stroke-linejoin="round"/>
</svg>
