<svg viewBox="0 0 649 179" fill="none" xmlns="http://www.w3.org/2000/svg">
    <path d="M73.26 38.26V36.38C73.5 19.59 59.36 5.45002 42.57 5.69002H5.64999V59.93L0 65.62L5.64999 71.31V118.36H47.93C53.43 118.36 58.45 117.01 62.99 114.35C67.53 111.65 71.15 108.03 73.8 103.49C76.5 98.95 77.85 93.93 77.85 88.38V83.31C77.85 73.22 73.65 64.15 66.75 57.73C70.84 52.3 73.26 45.55 73.26 38.26ZM28.18 28.22H41.74C44.2 28.22 46.32 29.09 48.06 30.87C49.85 32.61 50.71 34.73 50.71 37.19V38.25C50.71 41 49.74 43.37 47.77 45.34C45.84 47.27 43.47 48.24 40.68 48.24H28.18V28.22ZM53.76 85.99C53.76 88.69 52.79 91.01 50.86 92.94C48.98 94.87 46.66 95.84 43.91 95.84H29.72V70.79H41.25C44.68 70.79 47.62 72 50.08 74.46C52.54 76.92 53.75 79.87 53.75 83.34V85.99H53.76Z" fill="white"/>
    <path d="M136.77 70.74C142.46 68.04 147.05 63.94 150.57 58.39C154.09 52.84 155.83 46.86 155.83 40.44V36.05C156.02 19.5 142.03 5.50002 125.47 5.69002H88.21V60.03L82.66 65.63L88.21 71.23V118.38H110.75V73.3H115.24L133.29 118.37H155.83L136.77 70.74ZM133.29 38.6C133.29 40.43 132.81 42.32 131.84 44.29C130.92 46.27 129.67 47.86 128.12 49.07C126.72 50.18 125.22 50.76 123.63 50.76H110.74V28.22H124.16C126.67 28.22 128.79 29.14 130.58 30.92C132.37 32.71 133.28 34.83 133.28 37.34V38.6H133.29Z" fill="white"/>
    <path d="M246.6 118.37L233.62 68.7101L236.66 65.6201L231.45 60.3601L217.17 5.68005H190.05L175.91 59.9201L170.31 65.6101L173.54 68.8901L160.65 118.36H183.19L188.26 95.5801H219L224.07 118.36H246.6V118.37ZM192.22 77.8801L203.61 31.4501L215.05 77.8801H192.22Z" fill="white"/>
    <path d="M307.99 10.2201C302.92 7.18005 297.28 5.68005 291.1 5.68005H257.08V59.9201L251.43 65.6101L257.08 71.3001V118.35H291.1C297.28 118.35 302.92 116.85 307.99 113.81C313.06 110.77 317.11 106.72 320.15 101.65C323.19 96.5801 324.69 90.9401 324.69 84.7601V39.2701C324.69 33.0901 323.19 27.4501 320.15 22.3801C317.11 17.3101 313.06 13.2601 307.99 10.2201ZM302.15 85.1701C302.15 88.1101 301.09 90.6701 299.01 92.7501C296.93 94.8301 294.47 95.8401 291.53 95.8401H279.61V71.3201L285.26 65.6301L279.61 59.9401V28.2201H291.53C294.47 28.2201 296.94 29.2801 299.01 31.3601C301.09 33.4401 302.15 35.9001 302.15 38.8401V85.1701Z" fill="white"/>
    <path d="M402.77 84.7801V39.2701C402.77 33.0901 401.27 27.4501 398.23 22.3801C395.19 17.3101 391.14 13.2601 386.07 10.2201C381 7.18005 375.36 5.68005 369.18 5.68005H335.16V59.9201L329.51 65.6101L335.16 71.3001V118.35H369.18C375.36 118.35 381 116.85 386.07 113.81C391.14 110.77 395.19 106.72 398.23 101.65C401.27 96.5801 402.77 90.9601 402.77 84.7801ZM380.23 85.1701C380.23 88.1101 379.17 90.6701 377.09 92.7501C375.01 94.8301 372.55 95.8401 369.61 95.8401H357.69V71.3201L363.34 65.6301L357.69 59.9401V28.2201H369.61C372.55 28.2201 375.02 29.2801 377.09 31.3601C379.17 33.4401 380.23 35.9001 380.23 38.8401V85.1701Z" fill="white"/>
    <path d="M534.86 3.37C528.34 3.37 522.46 4.95999 517.1 8.14999C511.79 11.29 507.54 15.53 504.41 20.89C501.27 26.2 499.68 32.09 499.68 38.55V59.93L494.03 65.62L499.68 71.31V85.51C499.68 91.98 501.27 97.86 504.41 103.22C507.55 108.53 511.79 112.78 517.1 115.96C522.46 119.1 528.34 120.69 534.86 120.69C541.33 120.69 547.21 119.1 552.52 115.96C557.88 112.77 562.12 108.53 565.26 103.22C568.45 97.86 570.04 91.98 570.04 85.51V81.79H546.59V85.51C546.59 88.74 545.43 91.49 543.12 93.81C540.85 96.08 538.1 97.24 534.87 97.24C531.64 97.24 528.84 96.08 526.57 93.81C524.3 91.49 523.14 88.74 523.14 85.51V71.32L528.74 65.63L523.14 59.94V38.55C523.14 35.32 524.3 32.57 526.57 30.3C528.84 27.98 531.64 26.83 534.87 26.83C538.1 26.83 540.85 27.99 543.12 30.3C545.44 32.57 546.59 35.32 546.59 38.55V41.4H570.04V38.55C570.04 28.85 566.13 20.11 559.71 13.7C553.29 7.28 544.56 3.37 534.86 3.37Z" fill="white"/>
    <path d="M648.12 5.68005H625.58L612.02 28.2201L603.05 43.2301V5.68005H580.51V59.9301L574.86 65.6201L580.51 71.3201V118.37H603.05V80.8201L607.53 73.3001L625.58 118.37H648.12L621.05 50.7601L648.12 5.68005Z" fill="white"/>
    <path d="M174.49 160.28C173.97 160.04 173.38 159.9 172.8 159.74C172.85 159.72 172.91 159.71 172.96 159.69C174.38 159 175.5 158.01 176.34 156.72C177.18 155.44 177.6 153.86 177.6 151.98C177.6 149.21 176.53 147.03 174.39 145.43C172.25 143.83 169.18 143.03 165.2 143.03H149.68V177.62H166.18C170.56 177.62 173.86 176.8 176.09 175.17C178.31 173.54 179.43 171.24 179.43 168.28C179.43 166.3 178.99 164.65 178.1 163.31C177.21 161.98 176.01 160.97 174.49 160.28ZM154.63 147.03H164.76C167.26 147.03 169.21 147.49 170.59 148.41C171.97 149.33 172.67 150.72 172.67 152.56C172.67 154.41 171.98 155.79 170.59 156.71C169.21 157.63 167.26 158.1 164.76 158.1H154.63V147.03ZM172.27 172.24C170.82 173.16 168.73 173.62 165.99 173.62H154.62V162.11H165.99C168.72 162.11 170.82 162.57 172.27 163.49C173.72 164.41 174.44 165.88 174.44 167.89C174.44 169.86 173.72 171.31 172.27 172.24Z" fill="white"/>
    <path d="M197.52 143.03L181.85 177.62H186.94L190.74 168.97H209.13L212.93 177.62H218.12L202.41 143.03H197.52ZM192.48 165.02L199.94 148.05L207.4 165.02H192.48Z" fill="white"/>
    <path d="M244.52 165.66C246.66 164.7 248.31 163.33 249.46 161.53C250.61 159.73 251.19 157.58 251.19 155.08C251.19 152.58 250.61 150.42 249.46 148.61C248.31 146.8 246.66 145.42 244.52 144.46C242.38 143.5 239.79 143.03 236.76 143.03H223.27V177.62H228.21V167.09H236.76C237.53 167.09 238.18 166.97 238.89 166.91L246.39 177.62H251.78L243.52 165.96C243.84 165.85 244.22 165.8 244.52 165.66ZM236.61 162.9H228.21V147.33H236.61C239.77 147.33 242.17 148.01 243.8 149.36C245.43 150.71 246.25 152.62 246.25 155.09C246.25 157.56 245.44 159.48 243.8 160.85C242.16 162.22 239.77 162.9 236.61 162.9Z" fill="white"/>
    <path d="M284 160.28C283.48 160.04 282.89 159.9 282.31 159.74C282.36 159.72 282.42 159.71 282.47 159.69C283.89 159 285.01 158.01 285.85 156.72C286.69 155.44 287.11 153.86 287.11 151.98C287.11 149.21 286.04 147.03 283.9 145.43C281.76 143.83 278.69 143.03 274.71 143.03H259.19V177.62H275.69C280.07 177.62 283.37 176.8 285.6 175.17C287.82 173.54 288.94 171.24 288.94 168.28C288.94 166.3 288.5 164.65 287.61 163.31C286.72 161.98 285.52 160.97 284 160.28ZM264.14 147.03H274.27C276.77 147.03 278.72 147.49 280.1 148.41C281.48 149.33 282.18 150.72 282.18 152.56C282.18 154.41 281.49 155.79 280.1 156.71C278.72 157.63 276.77 158.1 274.27 158.1H264.14V147.03ZM281.78 172.24C280.33 173.16 278.24 173.62 275.5 173.62H264.13V162.11H275.5C278.23 162.11 280.33 162.57 281.78 163.49C283.23 164.41 283.95 165.88 283.95 167.89C283.95 169.86 283.23 171.31 281.78 172.24Z" fill="white"/>
    <path d="M301.54 162.16H318.89V157.95H301.54V147.33H321.01V143.03H296.6V177.62H321.7V173.32H301.54V162.16Z" fill="white"/>
    <path d="M350.96 165.66C353.1 164.7 354.75 163.33 355.9 161.53C357.05 159.73 357.63 157.58 357.63 155.08C357.63 152.58 357.05 150.42 355.9 148.61C354.75 146.8 353.1 145.42 350.96 144.46C348.82 143.5 346.23 143.03 343.2 143.03H329.71V177.62H334.65V167.09H343.2C343.97 167.09 344.62 166.97 345.33 166.91L352.83 177.62H358.22L349.96 165.96C350.28 165.85 350.66 165.8 350.96 165.66ZM343.05 162.9H334.65V147.33H343.05C346.21 147.33 348.61 148.01 350.24 149.36C351.87 150.71 352.69 152.62 352.69 155.09C352.69 157.56 351.88 159.48 350.24 160.85C348.6 162.22 346.22 162.9 343.05 162.9Z" fill="white"/>
    <path d="M384.98 160.97C383.74 160.28 382.38 159.72 380.88 159.29C379.38 158.86 377.89 158.47 376.41 158.13C374.93 157.78 373.57 157.4 372.33 156.97C371.09 156.54 370.09 155.97 369.32 155.24C368.55 154.52 368.16 153.54 368.16 152.32C368.16 151.3 368.45 150.38 369.03 149.55C369.61 148.73 370.52 148.07 371.77 147.57C373.02 147.08 374.62 146.83 376.56 146.83C378.11 146.83 379.7 147.05 381.35 147.5C383 147.95 384.56 148.66 386.04 149.65L387.67 145.7C386.22 144.71 384.51 143.95 382.53 143.43C380.55 142.9 378.56 142.64 376.55 142.64C373.52 142.64 371.02 143.09 369.06 144C367.1 144.91 365.65 146.11 364.71 147.61C363.77 149.11 363.3 150.75 363.3 152.53C363.3 154.38 363.68 155.88 364.44 157.05C365.2 158.22 366.2 159.15 367.43 159.84C368.67 160.53 370.03 161.1 371.53 161.55C373.03 161.99 374.52 162.38 376 162.71C377.48 163.04 378.84 163.43 380.08 163.87C381.32 164.32 382.32 164.9 383.09 165.63C383.86 166.36 384.25 167.31 384.25 168.5C384.25 169.52 383.95 170.44 383.36 171.24C382.77 172.04 381.84 172.68 380.59 173.14C379.34 173.6 377.71 173.83 375.7 173.83C373.49 173.83 371.37 173.45 369.33 172.69C367.29 171.93 365.61 170.98 364.29 169.82L362.46 173.67C363.84 174.96 365.74 176 368.14 176.81C370.54 177.62 373.07 178.02 375.7 178.02C378.73 178.02 381.24 177.57 383.24 176.66C385.23 175.75 386.71 174.55 387.66 173.05C388.61 171.55 389.09 169.93 389.09 168.18C389.09 166.37 388.71 164.89 387.95 163.73C387.19 162.57 386.22 161.66 384.98 160.97Z" fill="white"/>
    <path d="M421.13 157.91H401.27V143.03H396.33V177.62H401.27V162.2H421.13V177.62H426.07V143.03H421.13V157.91Z" fill="white"/>
    <path d="M465.19 147.65C463.53 146.05 461.58 144.82 459.36 143.94C457.14 143.07 454.7 142.63 452.07 142.63C449.4 142.63 446.95 143.08 444.71 143.97C442.47 144.86 440.52 146.1 438.88 147.7C437.23 149.3 435.95 151.17 435.03 153.31C434.11 155.45 433.65 157.79 433.65 160.33C433.65 162.87 434.11 165.21 435.03 167.35C435.95 169.49 437.24 171.36 438.88 172.96C440.53 174.56 442.48 175.8 444.74 176.69C447 177.58 449.44 178.03 452.08 178.03C454.71 178.03 457.15 177.59 459.37 176.72C461.59 175.85 463.54 174.61 465.2 173.01C466.86 171.41 468.15 169.54 469.05 167.4C469.96 165.26 470.41 162.9 470.41 160.33C470.41 157.76 469.96 155.41 469.05 153.26C468.14 151.12 466.85 149.25 465.19 147.65ZM464.45 165.61C463.77 167.23 462.83 168.63 461.63 169.84C460.43 171.04 459.01 171.97 457.38 172.63C455.75 173.29 453.98 173.62 452.07 173.62C450.13 173.62 448.34 173.29 446.71 172.63C445.08 171.97 443.65 171.04 442.43 169.84C441.21 168.64 440.26 167.23 439.59 165.61C438.91 164 438.58 162.23 438.58 160.32C438.58 158.41 438.92 156.65 439.59 155.03C440.27 153.42 441.21 152.01 442.43 150.8C443.65 149.6 445.07 148.67 446.71 148.01C448.35 147.35 450.13 147.02 452.07 147.02C453.98 147.02 455.75 147.35 457.38 148.01C459.01 148.67 460.43 149.6 461.63 150.8C462.83 152 463.77 153.41 464.45 155.03C465.13 156.65 465.46 158.41 465.46 160.32C465.46 162.23 465.12 164 464.45 165.61Z" fill="white"/>
    <path d="M499.21 144.46C497.07 143.5 494.48 143.03 491.45 143.03H477.96V177.62H482.9V167.14H491.45C494.48 167.14 497.07 166.65 499.21 165.68C501.35 164.71 503 163.32 504.15 161.53C505.3 159.73 505.88 157.58 505.88 155.08C505.88 152.58 505.3 150.42 504.15 148.61C503 146.8 501.35 145.42 499.21 144.46ZM498.49 160.82C496.86 162.17 494.46 162.85 491.3 162.85H482.9V147.33H491.3C494.46 147.33 496.86 148.01 498.49 149.36C500.12 150.71 500.94 152.62 500.94 155.09C500.94 157.56 500.13 159.47 498.49 160.82Z" fill="white"/>
    <path d="M480.68 112.76V62.89V61.16V11.3C480.68 9.36 479.04 7.78 477.01 7.78H472.64L471.76 8.75C471.13 9.44 470.22 9.84 469.26 9.84C467.84 9.84 466.69 8.74 466.69 7.38V3.6C466.69 1.61 465.01 0 462.93 0H449.27H447.42H433.76C431.69 0 430 1.61 430 3.6V7.38C430 8.74 428.85 9.84 427.43 9.84C426.47 9.84 425.56 9.44 424.93 8.75L424.05 7.78H419.68C417.65 7.78 416.01 9.35 416.01 11.3V61.16V62.89V112.75C416.01 114.69 417.65 116.27 419.68 116.27H424.05L424.93 115.3C425.56 114.61 426.47 114.21 427.43 114.21C428.85 114.21 430 115.31 430 116.67V120.45C430 122.44 431.68 124.05 433.76 124.05H447.42H449.27H462.93C465 124.05 466.69 122.44 466.69 120.45V116.67C466.69 115.31 467.84 114.21 469.26 114.21C470.22 114.21 471.13 114.61 471.76 115.3L472.64 116.27H477.01C479.04 116.27 480.68 114.7 480.68 112.76ZM453.58 36C453.58 36 456.43 36.49 456.78 36.69C457.34 37 457.68 37.55 457.62 38.33C457.57 38.94 457.25 39.34 456.79 39.59C456.41 39.79 453.58 40.28 453.58 40.28C452.31 40.28 451.28 41.33 451.28 42.63V54.05C451.28 54.61 451.57 55.13 452.06 55.4C454.4 56.68 456.18 59.08 456.31 61.92C456.31 61.99 456.31 62.12 456.31 62.18C456.18 65.02 454.4 67.42 452.06 68.7C451.58 68.96 451.28 69.49 451.28 70.05V81.47C451.28 82.77 452.31 83.82 453.58 83.82C453.58 83.82 456.41 84.3 456.79 84.51C457.25 84.75 457.56 85.16 457.62 85.77C457.69 86.55 457.34 87.1 456.78 87.41C456.43 87.6 453.58 88.1 453.58 88.1C452.31 88.1 451.28 89.15 451.28 90.45V91C451.28 91.55 451.49 92.07 451.87 92.46L457.44 98.13C458 98.7 458 99.62 457.44 100.18L451.87 105.85C451.49 106.24 451.28 106.76 451.28 107.31V107.87C451.28 109.17 452.31 110.22 453.58 110.22H455.42C456.53 110.22 457.52 111.04 457.62 112.16C457.73 113.42 456.75 114.48 455.53 114.48L451.28 114.87L448.28 115.26L445.42 114.87L441.27 114.48C440.16 114.48 439.17 113.66 439.07 112.54C438.96 111.28 439.94 110.22 441.16 110.22H443.11C444.38 110.22 445.42 109.17 445.42 107.87V107.31C445.42 106.76 445.21 106.24 444.83 105.85L439.26 100.18C438.7 99.61 438.7 98.69 439.26 98.13L444.83 92.46C445.21 92.07 445.42 91.55 445.42 91V90.44C445.42 89.14 444.39 88.09 443.11 88.09C443.11 88.09 440.32 87.61 439.94 87.42C439.46 87.18 439.13 86.77 439.08 86.14C439.02 85.44 439.29 84.92 439.75 84.6C440.12 84.34 443.11 83.81 443.11 83.81C444.38 83.81 445.42 82.76 445.42 81.46V70.16C445.42 69.58 445.11 69.05 444.6 68.79C442.14 67.54 440.26 65.08 440.12 62.16C440.12 62.09 440.12 61.96 440.12 61.9C440.25 58.97 442.14 56.51 444.6 55.27C445.11 55.01 445.42 54.48 445.42 53.9V42.61C445.42 41.31 444.39 40.26 443.11 40.26C443.11 40.26 440.12 39.73 439.75 39.47C439.29 39.15 439.02 38.63 439.08 37.93C439.13 37.3 439.47 36.89 439.94 36.65C440.32 36.46 443.11 35.98 443.11 35.98C444.38 35.98 445.42 34.93 445.42 33.63V33.07C445.42 32.52 445.21 32 444.83 31.61L439.26 25.94C438.7 25.37 438.7 24.45 439.26 23.89L444.83 18.22C445.21 17.83 445.42 17.31 445.42 16.76V16.2C445.42 14.9 444.39 13.85 443.11 13.85H441.16C439.94 13.85 438.96 12.79 439.07 11.53C439.17 10.41 440.16 9.59 441.27 9.59L445.42 9.2L448.28 8.81L451.28 9.2L455.53 9.59C456.75 9.59 457.73 10.65 457.62 11.91C457.52 13.03 456.53 13.85 455.42 13.85H453.58C452.31 13.85 451.28 14.9 451.28 16.2V16.76C451.28 17.31 451.49 17.83 451.87 18.22L457.44 23.89C458 24.46 458 25.38 457.44 25.94L451.87 31.61C451.49 32 451.28 32.52 451.28 33.07V33.62C451.27 34.94 452.31 36 453.58 36ZM478.25 80.16C478.22 85.95 478.07 91.35 478 95.98C477.93 100.61 477.76 104.47 477.7 107.17C477.6 109.87 477.54 111.41 477.54 111.41C477.54 111.41 477.48 109.87 477.38 107.17C477.31 104.47 477.15 100.61 477.08 95.98C477.01 91.35 476.86 85.95 476.83 80.16C476.8 74.37 476.76 68.2 476.72 62.03C476.76 55.86 476.79 49.68 476.83 43.9C476.86 38.11 477.01 32.71 477.08 28.08C477.15 23.45 477.31 19.59 477.38 16.89C477.48 14.19 477.54 12.65 477.54 12.65C477.54 12.65 477.6 14.19 477.7 16.89C477.77 19.59 477.93 23.45 478 28.08C478.07 32.71 478.22 38.11 478.25 43.9C478.28 49.69 478.32 55.86 478.36 62.03C478.32 68.2 478.28 74.37 478.25 80.16Z" fill="white"/>
</svg>
