<svg viewBox="0 0 86 93" fill="none" xmlns="http://www.w3.org/2000/svg">
<path d="M86 69.4786L82.4093 75.4598L86 84.4307H83.0113L80.615 78.4514L80.0198 79.4509V84.4307H77.0291V78.1874L76.2791 77.4325L77.0291 76.6765V69.4786H80.0198V74.4604L81.2092 72.4692L83.0113 69.4786H86Z" fill="white"/>
<path d="M75.6401 79.5795V80.0704C75.6401 80.9296 75.4277 81.7119 75.0059 82.422C74.589 83.1253 74.0259 83.6884 73.3158 84.1121C72.6125 84.5271 71.8302 84.7385 70.971 84.7385C70.107 84.7385 69.3247 84.5262 68.6146 84.1121C67.9113 83.6874 67.3482 83.1253 66.9313 82.422C66.5143 81.7109 66.3049 80.9286 66.3049 80.0704V78.1874L65.5548 77.4325L66.3049 76.6775V73.8389C66.3049 72.9826 66.5143 72.2004 66.9313 71.497C67.3482 70.7859 67.9113 70.2209 68.6146 69.8069C69.3257 69.3822 70.1079 69.1727 70.971 69.1727C72.2588 69.1727 73.4171 69.691 74.2704 70.5424C75.1218 71.3938 75.6401 72.554 75.6401 73.8398V74.2197H72.5277V73.8389C72.5277 73.4122 72.3718 73.0469 72.066 72.7459C71.765 72.4371 71.3997 72.2841 70.9701 72.2841C70.5405 72.2841 70.1703 72.4371 69.8693 72.7459C69.5683 73.0469 69.4153 73.4122 69.4153 73.8389V76.6765L70.1586 77.4315L69.4153 78.1864V80.0695C69.4153 80.4991 69.5683 80.8644 69.8693 81.1722C70.1703 81.4732 70.5405 81.6261 70.9701 81.6261C71.3997 81.6261 71.765 81.4732 72.066 81.1722C72.3718 80.8634 72.5277 80.4981 72.5277 80.0695V79.5785H75.6401V79.5795Z" fill="white"/>
<path d="M66.8961 88.4461C67.0491 88.6857 67.126 88.9721 67.126 89.3053C67.126 89.6355 67.0491 89.9219 66.8961 90.1615C66.7432 90.3983 66.526 90.5814 66.2425 90.7119C65.9561 90.8405 65.6132 90.9048 65.2109 90.9048H64.078V92.2939H63.4214V87.7038H65.2109C65.6132 87.7038 65.9561 87.7681 66.2425 87.8967C66.526 88.0214 66.7432 88.2045 66.8961 88.4461ZM66.4714 89.3053C66.4714 88.977 66.3633 88.7227 66.1461 88.5454C65.9288 88.3652 65.6103 88.2766 65.1914 88.2766H64.078V90.3349H65.1914C65.6113 90.3349 65.9288 90.2463 66.1461 90.0661C66.3633 89.8849 66.4714 89.6326 66.4714 89.3053Z" fill="white"/>
<path d="M61.3903 16.5799C62.6265 18.273 66.3311 20.3216 66.225 21.3795C66.1217 22.4384 65.132 28.5092 65.3784 29.3557C65.6249 30.2042 66.4373 35.8854 65.8032 35.0389C65.1661 34.1923 63.8977 27.9812 63.5792 25.8264C63.2607 23.6746 60.9656 17.8852 60.9656 18.875C60.9656 19.8618 62.908 25.4738 62.9421 26.5327C62.9791 27.5916 62.9791 27.5916 62.9791 27.5916C62.9791 27.5916 63.0483 33.2406 63.473 33.8056C63.8977 34.3687 65.1661 38.1123 64.6381 37.8629C64.1072 37.6164 62.8369 34.8986 62.4492 35.4646C62.0615 36.0305 61.6027 45.8421 61.0377 48.2404C60.4727 50.6417 59.0952 51.2758 59.4488 51.5944C59.8025 51.9129 62.7677 57.559 62.7337 59.5706C62.6966 61.5842 65.132 66.0662 64.5329 66.8777C63.9328 67.6891 62.2378 68.3613 62.1316 67.3716C62.0255 66.3848 60.7912 59.1138 59.6612 59.6768C58.5332 60.2418 56.7661 65.0784 54.8616 65.925C52.9562 66.7715 44.7315 68.4295 45.015 67.3024C45.2965 66.1724 46.0369 63.3493 47.4504 63.2081C48.8619 63.0649 51.0859 63.8422 51.6138 63.137C52.1447 62.4307 52.2509 60.8419 51.685 59.82C51.1199 58.7962 51.2602 57.1723 52.3561 56.1826C53.4491 55.1958 58.3208 52.7254 57.7207 52.1945C57.1187 51.6665 53.6956 54.4184 53.8018 53.5719C53.9079 52.7254 55.601 52.3727 54.9318 52.2315C54.2606 52.0883 51.7531 51.9129 51.3654 52.4779C50.9777 53.041 47.9774 54.8071 47.237 55.6887C46.4938 56.5722 45.3297 57.2775 45.1884 57.9497C45.0481 58.6189 45.0822 57.597 44.2708 57.032C43.4593 56.467 43.7769 56.3258 42.8242 57.2074C41.8715 58.0909 41.2003 57.3477 40.7415 57.9136C40.2826 58.4786 38.836 62.9626 38.1649 62.5379C37.4937 62.1131 38.0908 61.1604 38.6217 59.9963C39.1526 58.8322 38.4834 57.2795 39.365 56.2897C40.2485 55.3029 41.8004 54.8431 42.6839 55.0555C43.5645 55.2679 46.4938 54.9152 46.7061 54.3843C46.9185 53.8534 50.0942 52.6542 49.0704 52.5481C48.0485 52.4419 46.5308 53.607 45.6472 53.5719C44.7666 53.5378 42.8933 54.4554 43.3522 53.5719C43.811 52.6883 44.411 51.6665 45.8596 51.6295C47.3062 51.5954 52.4243 51.5233 53.7297 50.9232C55.0379 50.3231 56.7651 49.6519 56.9424 49.0529C57.1177 48.4528 56.4836 45.5235 54.8938 45.5956C53.3069 45.6648 51.8243 48.0066 50.7995 48.443C49.7756 48.8775 45.2225 50.6767 44.5883 50.817C43.9542 50.9602 42.8242 53.0059 41.8344 52.512C40.8476 52.0181 39.0114 50.7819 38.8701 51.5223C38.7299 52.2656 40.5388 52.512 40.5164 52.8306C40.494 53.1462 42.4706 53.7482 41.624 54.0297C40.7756 54.3113 37.0709 54.1008 36.2935 53.3956C35.5162 52.6874 31.7063 50.1829 31.8096 50.9943C31.9158 51.8058 33.8582 52.4058 33.5396 53.0059C33.224 53.606 30.8939 55.4413 31.1754 56.1816C31.4569 56.9249 33.2932 59.9603 32.8334 60.7718C32.3746 61.5832 31.7053 61.7245 32.6931 62.0771C33.6828 62.4297 35.5883 62.8886 35.8347 63.6659C36.0812 64.4404 38.4454 66.5581 37.9174 67.054C37.3865 67.5479 36.3286 67.7943 35.8347 66.8046C35.3408 65.8178 34.2829 64.4063 33.0458 64.3342C31.8096 64.265 28.7391 65.5704 27.6091 65.0775C26.481 64.5816 24.751 62.3947 24.7169 62.9597C24.6798 63.5227 26.3037 67.4417 25.4913 67.4417C24.6798 67.4417 23.621 68.2532 23.093 65.924C23.0063 65.5411 22.903 65.0775 22.7939 64.567C22.2416 61.968 21.5207 58.1211 21.7866 57.2054C22.1023 56.1124 21.8207 54.7009 21.3619 55.5124C20.9031 56.3238 20.5505 60.6997 21.1846 61.6524C21.5207 62.156 21.9055 63.437 22.1617 64.6537C22.3935 65.7418 22.5221 66.7783 22.4208 67.1611C22.2085 67.9707 19.6669 68.2668 19.3513 67.6891C19.0328 67.1115 19.0328 67.1115 19.0328 67.1115C19.1516 64.8534 20.2319 62.6178 20.1628 61.2773C20.0916 59.935 19.7848 55.7715 20.3508 54.6882C20.9158 53.605 22.0935 48.4518 22.0214 47.2059C21.9503 45.957 22.187 44.452 21.6912 42.8992C21.1973 41.3474 18.7746 38.687 19.6455 38.0529C20.5164 37.4158 21.3853 37.2511 21.5753 35.8864C21.6249 35.5337 21.6766 35.0623 21.7331 34.5343C21.9006 33.0195 22.1003 31.0546 22.3283 30.2179C22.6341 29.0879 22.1159 28.2881 22.3283 26.8045C22.5406 25.3209 23.7622 19.7439 24.1869 18.9909C24.6117 18.2379 24.7763 17.932 24.7276 18.7094C24.6808 19.4867 24.0467 22.791 24.3282 23.6375C24.6117 24.486 24.3652 28.2618 24.3282 28.5462C24.2941 28.8278 23.4105 33.8056 23.3063 34.4047C23.2001 35.0048 22.4948 37.6525 21.6824 38.3208C20.871 38.9919 20.3741 39.3446 21.1866 39.3446C21.8578 39.3446 23.205 38.3792 23.7729 37.5259C23.8918 37.3486 23.9755 37.1752 24.0126 37.0154C24.222 36.0978 26.1303 30.5198 26.3047 29.4269C26.482 28.3339 26.445 26.3914 26.7635 25.4738C27.0821 24.5562 28.4936 21.698 28.3874 20.7083C28.2812 19.7215 28.2121 18.6626 27.6471 19.6494C27.0821 20.6391 25.8829 23.2498 25.7767 21.8734C25.6705 20.4989 26.2355 17.3202 27.048 16.1552C27.8594 14.9901 29.1658 15.0622 29.6246 14.391C30.0834 13.7198 28.3192 13.5104 27.7883 13.6848C27.2574 13.862 26.5521 15.0622 25.7767 15.5902C24.9994 16.1211 23.0569 17.6388 22.8105 18.4502C22.564 19.2617 22.564 19.2617 22.564 19.2617C22.564 19.2617 21.2236 24.7325 21.0463 25.8264C20.9206 26.6184 21.3083 32.1593 21.0804 34.4563C20.9937 35.3399 20.8135 35.7442 20.4803 35.2162C19.2812 33.3088 16.5984 30.5198 16.4581 28.368C16.3178 26.2161 15.821 19.1214 15.5054 21.2382C15.1869 23.356 15.858 28.0864 15.0466 26.4976C14.2351 24.9088 13.8815 21.2041 12.8577 22.1568C11.8339 23.1096 12.3638 24.0964 12.8577 24.8737C13.3516 25.6511 17.4108 32.3561 17.6573 32.7457C17.9037 33.1335 20.1277 36.3442 19.4585 36.203C18.7873 36.0627 14.3403 30.1321 14.0939 29.1083C13.8445 28.0864 10.3522 23.6375 11.1276 22.5436C11.905 21.4506 14.5157 18.7308 17.6232 17.744C20.7278 16.7543 24.8932 14.7086 25.5303 13.9312C26.1644 13.1568 26.1644 13.1568 26.1644 13.1568C26.1644 13.1568 31.2115 10.8617 32.1661 11.1802C36.7436 12.7057 41.3815 8.85594 44.5893 11.1481C44.903 11.3731 45.1368 11.5826 45.2751 11.7111C45.4729 11.5212 45.7856 11.2523 46.2132 11.0029C48.481 9.68494 51.5291 9.91483 54.0141 11.603C54.8947 12.2031 59.2735 13.9322 59.9077 15.3447C60.5438 16.7552 60.1541 14.8849 61.3903 16.5799ZM61.9008 33.6449C62.044 33.3458 61.9378 30.0269 61.9008 29.7805C61.8667 29.534 61.5131 27.1522 61.5851 26.4811C61.6543 25.8099 61.0718 23.4797 61.0718 23.4797C61.0718 23.4797 60.8993 22.6556 60.6081 21.5724C60.2106 20.0868 59.5891 18.1103 58.8858 17.0903C57.6671 15.3262 56.2381 13.1743 56.0082 13.5786C55.7783 13.9858 56.0773 14.7436 56.3608 14.9901C56.6423 15.2366 58.3939 17.9914 58.5692 18.6081C58.6978 19.0698 59.519 19.9553 59.9856 21.7399C60.1434 22.3449 60.2593 23.055 60.2964 23.8869C60.4171 26.6808 60.6763 27.5809 60.5555 27.5809C60.5331 27.5809 60.5009 27.5536 60.4542 27.5039C60.1356 27.1678 59.7654 25.3842 59.2891 25.3666C58.8127 25.3491 57.7714 24.9448 57.1713 25.3666C56.5712 25.7914 55.7228 26.1781 56.0579 26.3905C56.3939 26.6028 56.695 26.3388 57.0476 26.1956C57.4002 26.0554 57.9487 25.7914 58.124 25.843C58.3013 25.8975 58.689 26.0037 58.689 26.0037C58.689 26.0037 59.3407 26.445 59.3602 26.6038C59.3777 26.7616 59.518 27.5049 59.4469 27.6627C59.3777 27.8205 59.0767 28.5979 58.5487 28.6495C58.3929 28.6641 58.1834 28.6641 57.9662 28.6524L57.9837 28.3855C58.0451 28.3855 58.1075 28.366 58.1688 28.3163C58.3714 28.1556 58.8127 28.0329 58.7786 27.803C58.7416 27.5731 58.5487 27.3987 57.9837 27.4503C57.4187 27.5049 57.0661 27.5857 57.1177 27.3315C57.1723 27.0802 57.8065 26.7616 57.9837 26.7986C58.1591 26.8327 58.1591 26.3739 57.9662 26.3573C57.7714 26.3398 57.0116 26.6038 56.8703 26.8337C56.73 27.0636 56.3764 27.1328 56.3764 27.4679C56.3764 27.803 56.2186 27.838 56.3764 28.2452C56.3988 28.2998 56.4183 28.3534 56.4378 28.4079C56.5664 28.7508 56.6424 29.0401 56.3043 28.9339C55.9166 28.8102 55.7043 27.7348 55.7939 27.6802C55.8825 27.6286 55.6361 27.4338 55.4237 27.6802C55.2113 27.9267 55.0165 28.5813 55.3175 28.7732C55.6185 28.968 55.9887 29.7386 56.7466 29.6811C57.5064 29.6217 58.8468 29.8691 59.0592 29.5506C59.2716 29.232 60.1006 28.6865 60.347 28.403C60.4259 28.3115 60.5146 28.2725 60.5935 28.2725C60.761 28.2725 60.8945 28.443 60.8653 28.6699C60.8234 29.0031 61.4604 29.0917 61.3543 29.3928C61.2481 29.6918 61.3172 33.3088 61.4945 33.2922C61.6718 33.2747 61.7605 33.9469 61.9008 33.6449ZM60.8594 40.987C60.9305 40.2642 60.4551 36.8751 60.3831 36.505C60.3139 36.1319 60.0499 35.1996 59.7489 35.1801C59.67 35.1753 59.6037 35.222 59.5414 35.3058L59.0105 35.2288C59.1829 34.9872 59.3563 34.7077 59.4839 34.5625C59.7654 34.244 59.254 33.8046 59.0592 33.415C58.8887 33.077 58.0178 32.7633 57.4947 32.6668C57.4207 32.6522 57.3515 32.6444 57.295 32.6396C57.2434 32.6347 57.1811 32.6318 57.1129 32.6318L57.1177 32.1408C57.335 32.1408 57.5054 32.0843 57.5425 31.9849C57.6136 31.7901 57.4363 31.5086 56.9258 31.1384C56.4125 30.7682 55.1617 30.6796 54.1544 30.6796C53.3059 30.6796 51.7405 31.005 50.7634 31.2475C50.5832 31.2923 50.4225 31.3342 50.29 31.3683C49.4435 31.5982 47.6588 32.6561 47.1659 32.9377C46.672 33.2211 45.9668 34.2976 45.6774 34.7564C45.3862 35.2152 45.4358 35.4451 45.3121 35.2503C45.1884 35.0554 45.9122 33.8563 45.5956 33.3799C45.2771 32.9036 44.4111 33.9108 43.4408 34.7028C42.4706 35.4977 41.9776 36.9268 41.8344 37.8093C41.6942 38.69 41.4643 39.4157 41.1282 39.3465C40.7921 39.2803 39.7712 39.556 38.9042 40.4911C38.0402 41.4263 36.54 41.8686 35.975 42.2212C35.41 42.5738 33.4705 41.9913 33.2231 41.2139C32.9737 40.4366 30.1681 39.292 29.3392 38.7435C28.5102 38.1961 29.4103 36.8381 29.798 35.8659C30.1876 34.8957 32.093 32.3025 32.4291 31.9129C32.7652 31.5252 32.2343 31.0322 31.4394 30.8199C30.6445 30.6075 27.5925 32.8685 27.2935 33.3614C26.9925 33.8553 27.6091 34.4544 27.2935 35.2318C26.9749 36.0091 25.4747 37.5073 24.9273 38.3734C24.9273 38.3734 24.8406 38.5857 24.3106 39.0251C23.7827 39.4663 22.3711 41.1078 22.3711 41.9543C22.3711 42.8028 23.6589 45.4855 24.0817 46.0856C24.5064 46.6857 24.1879 47.9219 24.3116 48.6798C24.4353 49.4396 26.4119 51.044 26.6408 51.1151C26.8707 51.1862 26.4654 50.251 26.1128 49.7377C25.7602 49.2272 25.0169 47.1611 25.1406 46.3662C25.2643 45.5713 23.7466 42.5193 23.4826 41.8501C23.2186 41.1789 24.524 40.4356 24.7013 40.419C24.8766 40.4015 28.0007 43.5431 28.1585 44.1257C28.3192 44.7082 30.8578 47.0549 31.5466 48.0622C32.2353 49.0665 32.6766 49.1727 32.8714 49.086C32.9727 49.0392 32.8198 48.5015 32.6571 47.9063L33.1627 47.8323C33.2542 48.0914 33.5056 48.2989 33.6293 48.5551C33.8241 48.9623 35.3243 50.0728 35.7295 50.2501C36.1367 50.4254 35.712 49.4552 35.9419 49.0314C36.1718 48.6096 36.6306 48.9623 37.706 48.9798C38.7825 48.9973 40.4054 49.8974 41.2354 50.214C42.0643 50.5326 45.9122 48.5901 47.237 48.6447C48.5599 48.6963 52.6367 45.0092 52.9377 44.866C53.2368 44.7257 54.4554 42.6625 54.7019 42.4677C54.7438 42.4355 54.771 42.3712 54.7856 42.2874L55.5133 42.3167C55.3994 42.719 55.3575 43.0522 55.3896 43.1729C55.4588 43.4545 56.466 44.4783 57.1372 45.3073C57.8064 46.1363 58.3539 48.5034 58.3539 48.8366C58.3539 49.1727 58.6179 50.6037 59.1137 50.3202C59.6076 50.0387 60.7182 45.1504 60.7893 44.7433C60.8594 44.3409 60.7902 41.7098 60.8594 40.987ZM55.7237 24.0973C56.2887 23.4456 56.6589 23.1622 56.3608 22.7404C56.0598 22.3156 55.4257 21.2499 54.3327 21.4301C53.2368 21.6104 52.3367 22.3877 52.4594 23.1105C52.5851 23.8333 52.4253 24.5396 52.9007 24.9984C53.377 25.4572 53.7842 25.7047 53.7842 25.7047C53.7842 25.7047 55.1617 24.751 55.7237 24.0973ZM53.755 30.2646C54.1593 30.2568 54.962 30.0055 54.9542 29.798C54.9493 29.5934 54.6181 29.3684 54.2908 29.2622C53.9605 29.156 51.3664 29.3216 51.1492 29.4054C50.9319 29.4873 48.4966 29.6275 48.2667 29.6227C48.0368 29.6149 46.6652 29.7337 45.9025 29.9042C45.1475 30.0717 45.1426 30.4419 45.1426 30.4516C45.1426 30.4516 45.2069 30.4663 45.2907 30.4809C45.2907 30.4809 45.4242 30.5033 45.5596 30.5101C45.92 30.5276 47.0578 30.1273 47.5439 30.4731C47.8303 30.6757 47.6598 30.9718 47.9433 31.1316C48.1897 31.2748 48.3748 30.7712 49.4016 30.7955C49.6266 30.8033 50.1546 30.4497 50.4556 30.4965C50.7546 30.5432 51.2729 30.3611 51.6372 30.2841C52.0025 30.2101 53.3478 30.2695 53.755 30.2646ZM52.4497 19.8111C52.9387 19.74 53.3088 19.7049 53.2368 19.438C53.1676 19.174 52.3727 18.91 51.9314 19.0503C51.4901 19.1906 50.3962 20.3216 49.6022 19.8452C48.8073 19.3689 48.6495 18.9276 48.8619 18.31C49.0713 17.6904 50.0435 16.2614 50.4137 16.0149C50.7839 15.7684 50.3075 15.2921 49.8312 15.7158C49.3548 16.1376 48.9671 16.651 48.8073 16.5799C48.6495 16.5088 46.7957 13.8806 46.3545 14.1981C45.9132 14.5137 47.6423 17.0903 47.3247 17.1624C47.0091 17.2335 46.1967 16.5624 45.9843 16.7377C45.7719 16.915 45.7544 17.0387 45.844 17.1965C45.9327 17.3573 46.7967 17.9028 46.7792 18.2203C46.7616 18.5389 46.5668 18.8545 45.9327 18.6616C45.2956 18.4668 44.9946 18.4843 44.9254 18.7503C44.8543 19.0143 46.1246 20.2339 46.5318 20.4706C46.936 20.7073 47.8546 22.3955 48.2794 23.5557C48.7012 24.7159 48.6495 25.88 48.6495 25.88C48.6495 25.88 48.8619 27.0081 49.2145 26.7265C49.5672 26.445 49.6363 25.7027 49.6022 24.9448C49.5682 24.185 49.5506 23.0375 49.7601 22.5436C49.9724 22.0497 50.0786 21.1321 50.6777 20.7073C51.2768 20.2865 51.9606 19.8793 52.4497 19.8111ZM45.3121 24.0282C45.4008 23.5966 45.5683 22.8982 45.3121 22.5007C45.0579 22.1033 44.527 21.1603 43.0716 21.5042C41.6153 21.85 41.2724 22.2104 40.9373 22.7657C40.6012 23.3239 41.9864 24.2834 41.9864 24.2834C41.9864 24.2834 43.0823 25.2381 43.7876 25.1221C44.4929 25.0082 45.2235 24.4597 45.3121 24.0282ZM42.6839 28.441C42.6839 28.1916 42.2426 27.575 41.9952 27.3997C41.7487 27.2224 41.1837 26.2697 40.9188 25.9881C40.6518 25.7047 40.2651 24.8922 39.628 24.8406C38.9939 24.7861 38.0587 24.7861 38.199 25.0705C38.3392 25.352 39.9115 25.616 40.0868 25.7768C40.2641 25.9346 41.1282 26.747 41.1477 27.048C41.1652 27.3471 41.8958 27.7172 41.6162 27.8059C41.3396 27.8945 39.6641 28.2647 39.7527 27.877C39.8394 27.4873 40.4385 27.2574 40.3158 27.011C40.232 26.8405 39.7946 26.4703 39.5306 26.2336C39.4118 26.1255 39.328 26.0456 39.328 26.0242C39.328 25.9531 38.2145 25.7407 38.1629 26.0417C38.1084 26.3427 37.7382 26.748 38.2866 26.7304C38.689 26.7178 39.0348 26.5726 39.2091 26.5726C39.2705 26.5726 39.3124 26.5902 39.328 26.6418C39.3796 26.8366 39.5228 27.0831 39.2393 27.2419C38.9578 27.4026 37.67 27.3997 37.5093 27.2419C37.3515 27.084 36.6111 27.2078 36.7689 27.3656C36.9267 27.5263 37.5093 28.1254 37.8103 28.177C38.1093 28.2316 38.499 28.2657 38.499 28.4235C38.499 28.5842 38.7289 28.9193 38.0918 28.8482C37.4576 28.7771 36.2585 28.0709 36.275 27.878C36.2926 27.6831 35.6925 27.8069 35.6214 27.7007C35.5522 27.5945 35.7451 26.9603 36.0286 26.8542C36.3101 26.748 36.8206 26.22 36.5916 26.22C36.3647 26.22 35.6983 26.484 35.6068 26.783C35.5152 27.084 34.5976 27.5429 34.6862 27.7377C34.7749 27.9306 35.1109 28.7596 35.4266 28.7966C35.7451 28.8307 36.4338 29.608 36.841 29.5886C37.2453 29.571 37.5473 29.6256 37.633 29.6704C37.7216 29.7123 37.9515 29.6431 37.9515 29.6431C38.5165 29.6772 38.9753 29.7123 39.2569 29.5028C39.5403 29.2905 40.4385 28.8492 41.0931 28.8657C41.7487 28.8804 42.6839 28.6875 42.6839 28.441Z" fill="white"/>
<path d="M63.7818 77.0691V83.6874C63.7818 83.9436 63.5645 84.154 63.2957 84.154H62.7161L62.6001 84.0235C62.5164 83.9319 62.3956 83.8803 62.267 83.8803C62.079 83.8803 61.926 84.0255 61.926 84.2057V84.7064C61.926 84.9704 61.7039 85.1847 61.4273 85.1847H59.6134H59.3689H57.5551C57.2784 85.1847 57.0563 84.9704 57.0563 84.7064V84.2057C57.0563 84.0255 56.9034 83.8803 56.7153 83.8803C56.5868 83.8803 56.466 83.9319 56.3851 84.0235L56.2663 84.154H55.6867C55.4178 84.154 55.2006 83.9446 55.2006 83.6874V77.0691V76.8392V70.2229C55.2006 69.9667 55.4178 69.7563 55.6867 69.7563H56.2663L56.3851 69.8848C56.4669 69.9784 56.5877 70.03 56.7153 70.03C56.9034 70.03 57.0563 69.8848 57.0563 69.7046V69.201C57.0563 68.937 57.2784 68.7246 57.5551 68.7246H59.3689H59.6134H61.4273C61.7039 68.7246 61.926 68.937 61.926 69.201V69.7046C61.926 69.8848 62.079 70.03 62.267 70.03C62.3956 70.03 62.5164 69.9784 62.6001 69.8848L62.7161 69.7563H63.2957C63.5645 69.7563 63.7818 69.9657 63.7818 70.2229V76.8392V77.0691ZM63.4613 79.3623C63.4642 78.5946 63.4691 77.7754 63.4739 76.9561C63.4691 76.1369 63.4642 75.3176 63.4593 74.55C63.4564 73.7804 63.4369 73.0644 63.4272 72.4498C63.4174 71.8351 63.395 71.3246 63.3872 70.9642C63.3726 70.6067 63.3648 70.4011 63.3648 70.4011C63.3648 70.4011 63.357 70.6057 63.3453 70.9642C63.3356 71.3246 63.3161 71.8351 63.3054 72.4498C63.2957 73.0644 63.2762 73.7795 63.2713 74.55C63.2664 75.3176 63.2616 76.1369 63.2567 76.9561C63.2616 77.7754 63.2664 78.5946 63.2713 79.3623C63.2762 80.1299 63.2957 80.8459 63.3054 81.4596C63.3132 82.0743 63.3346 82.5876 63.3453 82.9451C63.358 83.3026 63.3648 83.5082 63.3648 83.5082C63.3648 83.5082 63.3726 83.3036 63.3872 82.9451C63.395 82.5876 63.4165 82.0743 63.4272 81.4596C63.4359 80.8449 63.4554 80.1299 63.4613 79.3623ZM60.722 73.8097C60.7317 73.7064 60.685 73.6343 60.6109 73.5924C60.5642 73.5681 60.1862 73.5009 60.1862 73.5009C60.0187 73.5009 59.8803 73.3625 59.8803 73.1901V73.1161C59.8803 73.045 59.9096 72.9729 59.9592 72.9232L60.6967 72.1702C60.7707 72.0932 60.7707 71.9724 60.6967 71.8964L59.9592 71.1434C59.9096 71.0938 59.8803 71.0226 59.8803 70.9505V70.8765C59.8803 70.7041 60.0187 70.5658 60.1862 70.5658H60.4307C60.5759 70.5658 60.7093 70.4576 60.722 70.3066C60.7366 70.1391 60.6061 69.9978 60.4453 69.9978L59.8803 69.9462L59.4829 69.8946L59.103 69.9462L58.5526 69.9978C58.4074 69.9978 58.274 70.1089 58.2613 70.257C58.2467 70.4245 58.3772 70.5658 58.538 70.5658H58.7971C58.9676 70.5658 59.103 70.7041 59.103 70.8765V70.9505C59.103 71.0246 59.0757 71.0937 59.0241 71.1454L58.2866 71.8955C58.2126 71.9724 58.2126 72.0932 58.2866 72.1692L59.0241 72.9193C59.0757 72.9709 59.103 73.043 59.103 73.1141V73.1882C59.103 73.3606 58.9676 73.4989 58.7971 73.4989C58.7971 73.4989 58.4269 73.5632 58.3753 73.5875C58.3139 73.6197 58.2691 73.6742 58.2613 73.758C58.2535 73.8496 58.2886 73.9188 58.35 73.9606C58.3996 73.9947 58.7971 74.0668 58.7971 74.0668C58.9676 74.0668 59.103 74.2052 59.103 74.3776V75.8729C59.103 75.9498 59.0611 76.0209 58.9948 76.055C58.6695 76.2206 58.4172 76.546 58.3996 76.9357C58.3996 76.9435 58.3996 76.96 58.3996 76.9698C58.4172 77.3575 58.6685 77.6858 58.9948 77.8504C59.0611 77.8825 59.103 77.9536 59.103 78.0306V79.5288C59.103 79.7012 58.9676 79.8396 58.7971 79.8396C58.7971 79.8396 58.3996 79.9087 58.35 79.9428C58.2886 79.9876 58.2535 80.0539 58.2613 80.1474C58.2691 80.2312 58.3129 80.2857 58.3753 80.3179C58.4269 80.3422 58.7971 80.4046 58.7971 80.4046C58.9676 80.4046 59.103 80.5449 59.103 80.7183V80.7923C59.103 80.8634 59.0757 80.9326 59.0241 80.9852L58.2866 81.7382C58.2126 81.8122 58.2126 81.9359 58.2866 82.01L59.0241 82.763C59.0757 82.8146 59.103 82.8838 59.103 82.9578V83.0318C59.103 83.2023 58.9676 83.3426 58.7971 83.3426H58.538C58.3772 83.3426 58.2467 83.4829 58.2613 83.6514C58.274 83.7995 58.4065 83.9076 58.5526 83.9076L59.103 83.9592L59.4829 84.0138L59.8803 83.9592L60.4453 83.9076C60.6061 83.9076 60.7366 83.7673 60.722 83.5988C60.7093 83.4507 60.5768 83.3426 60.4307 83.3426H60.1862C60.0187 83.3426 59.8803 83.2023 59.8803 83.0318V82.9578C59.8803 82.8838 59.9096 82.8146 59.9592 82.763L60.6967 82.01C60.7707 81.9359 60.7707 81.8122 60.6967 81.7382L59.9592 80.9852C59.9096 80.9335 59.8803 80.8644 59.8803 80.7923V80.7183C59.8803 80.5458 60.0187 80.4046 60.1862 80.4046C60.1862 80.4046 60.5642 80.3403 60.6109 80.3159C60.685 80.274 60.7317 80.2 60.722 80.0967C60.7142 80.0178 60.6723 79.9633 60.6139 79.9311C60.5622 79.9039 60.1872 79.8396 60.1872 79.8396C60.0196 79.8396 59.8813 79.7012 59.8813 79.5288V78.014C59.8813 77.94 59.9212 77.8708 59.9846 77.8367C60.2953 77.6663 60.532 77.3458 60.5496 76.9707C60.5496 76.961 60.5496 76.9435 60.5496 76.9366C60.532 76.5587 60.2953 76.2411 59.9846 76.0706C59.9203 76.0365 59.8813 75.9674 59.8813 75.8933V74.3785C59.8813 74.2061 60.0196 74.0678 60.1872 74.0678C60.1872 74.0678 60.5622 74.0035 60.6139 73.9762C60.6723 73.9451 60.7142 73.8905 60.722 73.8097Z" fill="white"/>
<path d="M63.473 76.9561C63.4681 77.7754 63.4632 78.5946 63.4603 79.3622C63.4554 80.1299 63.436 80.8458 63.4262 81.4596C63.4165 82.0742 63.3941 82.5876 63.3863 82.9451C63.3717 83.3026 63.3639 83.5082 63.3639 83.5082C63.3639 83.5082 63.3561 83.3036 63.3444 82.9451C63.3346 82.5876 63.3122 82.0742 63.3044 81.4596C63.2947 80.8449 63.2752 80.1299 63.2704 79.3622C63.2655 78.5946 63.2606 77.7754 63.2557 76.9561C63.2606 76.1369 63.2655 75.3176 63.2704 74.55C63.2752 73.7804 63.2947 73.0644 63.3044 72.4497C63.3142 71.8351 63.3337 71.3246 63.3444 70.9642C63.357 70.6067 63.3639 70.4011 63.3639 70.4011C63.3639 70.4011 63.3717 70.6057 63.3863 70.9642C63.3941 71.3246 63.4155 71.8351 63.4262 72.4497C63.436 73.0644 63.4554 73.7794 63.4584 74.55C63.4632 75.3176 63.4681 76.1369 63.473 76.9561Z" fill="white"/>
<path d="M62.2369 89.0608C62.3576 89.3472 62.4171 89.6579 62.4171 89.9989C62.4171 90.3418 62.3576 90.6525 62.2369 90.937C62.118 91.2234 61.9456 91.4698 61.7264 91.6822C61.5072 91.8945 61.2481 92.0572 60.9539 92.1731C60.6578 92.2891 60.3344 92.3485 59.9866 92.3485C59.6359 92.3485 59.3105 92.2891 59.0115 92.1712C58.7124 92.0524 58.4533 91.8877 58.2341 91.6754C58.0169 91.463 57.8464 91.2165 57.7237 90.9321C57.6 90.6486 57.5415 90.3369 57.5415 89.9989C57.5415 89.6628 57.6009 89.352 57.7237 89.0686C57.8474 88.7851 58.0169 88.5377 58.2341 88.3253C58.4533 88.1129 58.7105 87.9473 59.0086 87.8295C59.3047 87.7106 59.6301 87.6522 59.9856 87.6522C60.3334 87.6522 60.6568 87.7116 60.9529 87.8275C61.2462 87.9434 61.5053 88.1061 61.7254 88.3185C61.9456 88.5299 62.118 88.7763 62.2369 89.0608ZM61.7634 89.9979C61.7634 89.7466 61.7186 89.5118 61.628 89.2975C61.5394 89.0832 61.4137 88.8981 61.2549 88.7374C61.0942 88.5766 60.9072 88.4539 60.6899 88.3672C60.4756 88.2785 60.2379 88.2366 59.9866 88.2366C59.7275 88.2366 59.4908 88.2785 59.2735 88.3672C59.0592 88.4539 58.8693 88.5766 58.7056 88.7374C58.5449 88.8981 58.4192 89.0832 58.3306 89.2975C58.239 89.5118 58.1951 89.7466 58.1951 89.9979C58.1951 90.2521 58.24 90.4869 58.3306 90.7012C58.4192 90.9155 58.5449 91.1006 58.7056 91.2613C58.8683 91.4221 59.0582 91.5448 59.2735 91.6315C59.4908 91.7202 59.7275 91.7621 59.9866 91.7621C60.2379 91.7621 60.4756 91.7202 60.6899 91.6315C60.9072 91.5448 61.0942 91.4221 61.2549 91.2613C61.4127 91.1006 61.5384 90.9155 61.628 90.7012C61.7186 90.4869 61.7634 90.2521 61.7634 89.9979Z" fill="white"/>
<path d="M59.0114 35.2298L59.5423 35.3068C59.3621 35.5464 59.2316 36.0968 59.0611 36.6472C58.9452 37.0174 58.7922 37.1557 58.5769 37.1557C58.3626 37.1557 58.0908 37.0174 57.7382 36.842C57.032 36.4894 57.0495 35.4305 56.8897 35.2006C56.7319 34.9707 56.803 33.5767 57.2083 33.3468C57.258 33.3195 57.3067 33.3069 57.3564 33.3069C57.7168 33.3069 58.0568 33.9654 58.0743 34.2449C58.0918 34.5635 58.1259 35.4811 58.4269 35.6565C58.5896 35.7529 58.802 35.5162 59.0114 35.2298Z" fill="white"/>
<path d="M58.6169 37.7518C58.8663 37.747 58.8536 37.9145 58.6909 38.3042C58.5137 38.7289 57.0154 39.9622 56.3267 40.723C55.937 41.1526 55.6653 41.7935 55.5152 42.3196L54.7876 42.2904C54.8587 41.8734 54.6268 40.9353 54.3336 40.422C53.9781 39.8053 53.2377 39.8569 52.7789 39.6816C52.3201 39.5043 51.3674 39.1712 50.8024 38.8701C50.2374 38.5691 50.4322 38.7299 50.0279 37.7937C49.7542 37.1615 49.8721 36.915 49.986 36.915C50.0406 36.915 50.0922 36.9715 50.0971 37.0709C50.1146 37.37 50.9631 37.4586 51.4024 37.9174C51.8437 38.3763 52.1798 38.3938 52.9201 38.236C53.6634 38.0752 54.3141 38.5691 54.6502 38.6753C54.9863 38.7815 55.0204 38.0061 55.1977 37.5473C55.3331 37.1898 55.3652 36.4543 55.4646 36.0812C55.4919 35.9779 55.524 35.901 55.5679 35.8688C55.7627 35.7285 55.8318 36.0296 56.0091 37.0875C56.1845 38.1464 56.468 38.4649 57.1197 38.6919C57.7733 38.9218 58.2331 37.7937 58.5507 37.7567C58.575 37.7548 58.5945 37.7518 58.6169 37.7518Z" fill="white"/>
<path d="M57.9848 28.3865L57.9672 28.6534C57.4441 28.6193 56.8713 28.5102 56.8713 28.3748C56.8713 28.3719 56.8713 28.3719 56.8713 28.3699C56.8889 28.1751 57.5425 27.9822 57.6487 28.1575C57.7237 28.2803 57.8465 28.3865 57.9848 28.3865Z" fill="white"/>
<path d="M57.1187 32.1427L57.1138 32.6337C56.5683 32.621 55.5172 32.6785 54.7028 32.5519C53.7852 32.4116 52.8325 32.5178 51.8973 32.7467C50.9621 32.9737 50.555 33.7335 50.2734 34.5976C49.9899 35.4636 51.984 36.3452 52.4078 36.5916C52.4623 36.6238 52.5062 36.6413 52.5461 36.6481L52.4945 37.1099C51.91 37.0329 51.2534 36.7991 50.6436 36.5049C50.5199 36.4455 50.4069 36.3812 50.3026 36.315C49.5798 35.8484 49.3227 35.2464 49.1084 34.9697C48.8619 34.6512 48.632 33.9459 49.1951 32.7087C49.4201 32.2178 50.1029 31.9908 50.8638 31.8865C52.0113 31.7258 53.3313 31.8447 53.5017 31.7385C53.7852 31.5612 56.0092 31.6839 56.4339 31.9508C56.6424 32.0853 56.9034 32.1427 57.1187 32.1427Z" fill="white"/>
<path d="M56.5362 87.7028V92.293H55.8796V90.2473H53.2436V92.293H52.588V87.7028H53.2436V89.6774H55.8796V87.7028H56.5362Z" fill="white"/>
<path d="M54.8431 35.4811C54.8674 35.6584 54.846 35.827 54.7836 35.9818C54.5859 36.4806 54.016 36.8625 53.4656 37.0505C53.189 37.1469 52.8539 37.1586 52.4934 37.1099L52.5451 36.6482C52.8169 36.6978 52.7701 36.2039 52.8315 35.8162C52.9006 35.375 52.0025 35.0048 51.8593 34.5284C51.719 34.0521 52.585 33.8397 53.414 33.7686C54.243 33.6994 54.7369 34.7408 54.8431 35.4811Z" fill="white"/>
<path d="M53.4442 73.9353V79.974C53.4442 80.7962 53.2465 81.5434 52.8422 82.2175C52.4399 82.8887 51.9021 83.4264 51.228 83.8316C50.5569 84.2339 49.8068 84.4317 48.9875 84.4317H44.4743V78.1884L43.7242 77.4335L44.4743 76.6785V69.4796H48.9875C49.8068 69.4796 50.5569 69.6793 51.228 70.0816C51.9021 70.4859 52.4399 71.0246 52.8422 71.6958C53.2465 72.3679 53.4442 73.1161 53.4442 73.9353ZM50.4526 80.0257V73.8779C50.4526 73.4882 50.3124 73.1599 50.0376 72.8862C49.761 72.6095 49.4356 72.4693 49.043 72.4693H47.461V76.6766L48.2111 77.4315L47.461 78.1865V81.4411H49.043C49.4356 81.4411 49.761 81.3057 50.0376 81.031C50.3124 80.7563 50.4526 80.4153 50.4526 80.0257Z" fill="white"/>
<path d="M51.4794 90.4528C51.5807 90.6058 51.6323 90.8006 51.6323 91.0422C51.6323 91.274 51.568 91.4893 51.4394 91.689C51.3138 91.8867 51.1189 92.0465 50.855 92.1673C50.588 92.2861 50.2549 92.3475 49.8526 92.3475C49.5048 92.3475 49.1687 92.293 48.8502 92.1868C48.5316 92.0787 48.2803 91.9403 48.0952 91.7699L48.3397 91.2594C48.5121 91.4123 48.7372 91.538 49.009 91.6393C49.2778 91.7377 49.5613 91.7903 49.8526 91.7903C50.1195 91.7903 50.3367 91.7611 50.5043 91.6987C50.6699 91.6374 50.7907 91.5536 50.8696 91.4445C50.9485 91.3383 50.9884 91.2175 50.9884 91.0821C50.9884 90.9243 50.9368 90.7986 50.8355 90.7022C50.7322 90.6058 50.5988 90.5268 50.4361 90.4674C50.2705 90.4109 50.0903 90.3593 49.8935 90.3145C49.6987 90.2697 49.499 90.218 49.3012 90.1615C49.1015 90.1021 48.9213 90.0261 48.7557 89.9346C48.593 89.843 48.4595 89.7203 48.3612 89.5644C48.2598 89.4085 48.2102 89.2088 48.2102 88.9643C48.2102 88.7276 48.2715 88.5104 48.3953 88.3107C48.5209 88.1129 48.7138 87.9532 48.9729 87.8324C49.232 87.7135 49.5652 87.6522 49.9675 87.6522C50.2344 87.6522 50.4984 87.6863 50.7595 87.7583C51.0215 87.8275 51.2485 87.9288 51.4404 88.0594L51.2261 88.5825C51.0284 88.4519 50.8218 88.3574 50.6017 88.299C50.3844 88.2396 50.1721 88.2103 49.9675 88.2103C49.7084 88.2103 49.496 88.2425 49.3304 88.3087C49.1629 88.373 49.0421 88.4617 48.9651 88.5708C48.8882 88.6789 48.8511 88.8026 48.8511 88.938C48.8511 89.1007 48.9028 89.2293 49.0041 89.3257C49.1073 89.4222 49.2408 89.4982 49.4035 89.5556C49.5691 89.6121 49.7493 89.6638 49.9461 89.7086C50.1409 89.7553 50.3406 89.807 50.5384 89.8644C50.7381 89.9209 50.9183 89.995 51.0839 90.0865C51.2475 90.1762 51.381 90.2989 51.4794 90.4528Z" fill="white"/>
<path d="M50.3912 1.42811C50.4896 1.30732 50.663 1.4135 50.6357 1.57911L49.5106 8.65429L43.6765 8.73611L37.8404 8.81989L36.5156 1.7788C36.4864 1.6132 36.6539 1.50215 36.7572 1.62294L38.3518 3.51862L38.1395 4.07388C38.0089 4.4197 38.0849 4.82884 38.3275 5.07822C38.6752 5.43378 39.2062 5.31493 39.4205 4.83371L39.4497 4.7626C39.6075 4.40996 39.5364 3.97257 39.2792 3.7115L38.9607 3.38808L39.778 0.626397C39.8179 0.49294 39.9679 0.473456 40.0322 0.592302L41.3454 3.00135L41.1574 3.34425C40.945 3.72903 40.9918 4.2424 41.2713 4.5629L41.3132 4.60966C41.6805 5.03438 42.2786 4.94768 42.5494 4.43431C42.7491 4.0544 42.7004 3.55564 42.4306 3.24001L42.1344 2.88932L43.43 0.0886713C43.4846 -0.0272514 43.62 -0.0301734 43.6765 0.083801L45.051 2.85036L44.7646 3.20592C44.5055 3.53128 44.4714 4.03004 44.6808 4.40509C44.9672 4.91066 45.5663 4.97788 45.9219 4.54536L45.9618 4.49568C46.2307 4.1674 46.2657 3.65208 46.0407 3.27411L45.843 2.93608L47.0869 0.490017C47.1483 0.369224 47.2993 0.386758 47.3412 0.517293L48.2394 3.25658L47.9286 3.58973C47.6792 3.85665 47.6198 4.29598 47.7883 4.6457L47.8205 4.71486C48.0474 5.18829 48.5832 5.29253 48.9212 4.92722C49.156 4.67297 49.2203 4.26091 49.0791 3.91802L48.8521 3.36763L50.3912 1.42811Z" fill="white"/>
<path d="M46.4431 90.7558L47.5342 92.293H46.8182L45.8304 90.8863C45.7369 90.8941 45.6404 90.899 45.5391 90.899H44.4043V92.293H43.7506V87.7028H45.5401C45.9424 87.7028 46.2853 87.7671 46.5688 87.8957C46.8523 88.0214 47.0724 88.2045 47.2254 88.4461C47.3783 88.6857 47.4553 88.9721 47.4553 89.3053C47.4553 89.6355 47.3783 89.9219 47.2254 90.1615C47.0724 90.3983 46.8523 90.5814 46.5688 90.7071C46.5289 90.7265 46.485 90.7382 46.4431 90.7558ZM46.7977 89.3053C46.7977 88.977 46.6896 88.7227 46.4743 88.5454C46.2571 88.3652 45.9385 88.2766 45.5196 88.2766H44.4043V90.3418H45.5196C45.9395 90.3418 46.2571 90.2502 46.4743 90.068C46.6896 89.8868 46.7977 89.6326 46.7977 89.3053Z" fill="white"/>
<path d="M43.0842 73.9353V79.974C43.0842 80.7962 42.8845 81.5434 42.4822 82.2175C42.0779 82.8887 41.5392 83.4264 40.8681 83.8316C40.194 84.2339 39.4468 84.4317 38.6275 84.4317H34.1114V78.1884L33.3633 77.4335L34.1114 76.6785V69.4796H38.6275C39.4468 69.4796 40.1949 69.6793 40.8681 70.0816C41.5392 70.4859 42.077 71.0246 42.4822 71.6958C42.8845 72.3679 43.0842 73.1161 43.0842 73.9353ZM40.0926 80.0257V73.8779C40.0926 73.4882 39.9524 73.1599 39.6757 72.8862C39.3991 72.6095 39.0737 72.4693 38.684 72.4693H37.102V76.6766L37.8521 77.4315L37.102 78.1865V81.4411H38.684C39.0737 81.4411 39.4 81.3057 39.6757 81.031C39.9524 80.7563 40.0926 80.4153 40.0926 80.0257Z" fill="white"/>
<path d="M42.6868 91.7231V92.293H39.3552V87.7028H42.5952V88.2756H40.0118V89.6852H42.3137V90.2424H40.0118V91.7231H42.6868Z" fill="white"/>
<path d="M38.1629 90.3953C38.2817 90.5726 38.3402 90.7928 38.3402 91.0539C38.3402 91.4484 38.1921 91.7523 37.8959 91.9696C37.6027 92.1868 37.1634 92.293 36.5809 92.293H34.392V87.7028H36.4503C36.9812 87.7028 37.3855 87.809 37.6719 88.0214C37.9554 88.2337 38.0966 88.525 38.0966 88.8903C38.0966 89.1397 38.0421 89.3491 37.9291 89.5196C37.818 89.692 37.6699 89.8235 37.48 89.9141C37.4771 89.917 37.4751 89.917 37.4722 89.919C37.5462 89.9385 37.6173 89.9609 37.6846 89.993C37.8843 90.0846 38.045 90.2181 38.1629 90.3953ZM37.3884 91.5799C37.5813 91.4562 37.6768 91.2643 37.6768 91.0022C37.6768 90.7353 37.5803 90.5405 37.3884 90.4177C37.1955 90.297 36.9199 90.2356 36.5565 90.2356H35.0485V91.763H36.5565C36.9189 91.763 37.1955 91.7007 37.3884 91.5799ZM37.44 88.9692C37.44 88.7247 37.3485 88.5425 37.1663 88.4188C36.9812 88.2951 36.725 88.2366 36.3919 88.2366H35.0495V89.7047H36.3919C36.725 89.7047 36.9812 89.6433 37.1663 89.5196C37.3485 89.3988 37.44 89.2137 37.44 88.9692Z" fill="white"/>
<path d="M35.2366 44.64C35.7841 44.64 35.5551 45.205 35.1479 45.4174C34.7437 45.6297 33.5241 46.7773 33.226 47.3228C33.1149 47.5225 33.1149 47.6881 33.1646 47.8362L32.659 47.9102C32.5109 47.3744 32.3531 46.7948 32.36 46.4938C32.3775 45.8596 32.7496 45.4895 33.3127 44.9585C33.8767 44.4296 34.6881 44.64 35.2366 44.64Z" fill="white"/>
<path d="M32.317 90.7558L33.4081 92.293H32.695L31.7072 90.8863C31.6137 90.8941 31.5143 90.899 31.416 90.899H30.2811V92.293H29.6245V87.7028H31.416C31.8183 87.7028 32.1612 87.7671 32.4446 87.8957C32.7281 88.0214 32.9454 88.2045 33.0983 88.4461C33.2512 88.6857 33.3282 88.9721 33.3282 89.3053C33.3282 89.6355 33.2512 89.9219 33.0983 90.1615C32.9454 90.3983 32.7281 90.5814 32.4446 90.7071C32.4028 90.7265 32.3609 90.7382 32.317 90.7558ZM32.6745 89.3053C32.6745 88.977 32.5664 88.7227 32.3492 88.5454C32.1349 88.3652 31.8163 88.2766 31.3965 88.2766H30.2811V90.3418H31.3965C31.8163 90.3418 32.1339 90.2502 32.3492 90.068C32.5664 89.8868 32.6745 89.6326 32.6745 89.3053Z" fill="white"/>
<path d="M30.9991 77.8416L32.7214 84.4307H29.7308L29.0596 81.4099H24.9799L24.3058 84.4307H21.3171L23.0248 77.8689L22.5952 77.4325L23.3404 76.6775L25.2156 69.4786H28.8141L30.7098 76.734L31.4005 77.4325L30.9991 77.8416ZM28.5336 79.0583L27.0159 72.8988L25.5059 79.0583H28.5336Z" fill="white"/>
<path d="M26.858 87.7028L28.9436 92.293H28.2549L27.7493 91.1454H25.3091L24.8054 92.293H24.1294L26.2102 87.7028H26.858ZM27.5194 90.6223L26.5297 88.3691L25.5399 90.6223H27.5194Z" fill="white"/>
<path d="M23.6326 90.3953C23.7485 90.5726 23.8079 90.7928 23.8079 91.0539C23.8079 91.4484 23.6628 91.7523 23.3667 91.9696C23.0705 92.1868 22.6341 92.293 22.0516 92.293H19.8627V87.7028H21.921C22.449 87.7028 22.8562 87.809 23.1397 88.0214C23.4232 88.2337 23.5664 88.525 23.5664 88.8903C23.5664 89.1397 23.5099 89.3491 23.3988 89.5196C23.2877 89.692 23.1368 89.8235 22.9497 89.9141C22.9468 89.917 22.9448 89.917 22.94 89.919C23.014 89.9385 23.0851 89.9609 23.1543 89.993C23.354 90.0846 23.5137 90.2181 23.6326 90.3953ZM22.8572 91.5799C23.0501 91.4562 23.1455 91.2643 23.1455 91.0022C23.1455 90.7353 23.0491 90.5405 22.8572 90.4177C22.6643 90.297 22.3886 90.2356 22.0253 90.2356H20.5153V91.763H22.0253C22.3886 91.763 22.6653 91.7007 22.8572 91.5799ZM22.9098 88.9692C22.9098 88.7247 22.8182 88.5425 22.636 88.4188C22.451 88.2951 22.1948 88.2366 21.8616 88.2366H20.5163V89.7047H21.8606C22.1938 89.7047 22.45 89.6433 22.6351 89.5196C22.8182 89.3988 22.9098 89.2137 22.9098 88.9692Z" fill="white"/>
<path d="M20.6762 73.5086V74.0911C20.6762 74.9425 20.4463 75.7374 19.9777 76.4729C19.5111 77.2084 18.9013 77.7539 18.1463 78.1114L20.6762 84.4316H17.6856L15.2921 78.4524H14.695V84.4316H11.7063V78.1757L10.9689 77.4324L11.7063 76.6892V69.4786H16.6491C18.8448 69.4533 20.7005 71.3119 20.6762 73.5086ZM17.6856 73.8466V73.681C17.6856 73.3479 17.5648 73.0663 17.3281 72.8267C17.0913 72.59 16.8098 72.4692 16.4767 72.4692H14.695V75.4598H16.4055C16.6179 75.4598 16.8157 75.3829 17.0027 75.2348C17.2073 75.0741 17.3729 74.8646 17.4937 74.6006C17.6213 74.3395 17.6856 74.0902 17.6856 73.8466Z" fill="white"/>
<path d="M10.3288 79.784V80.4552C10.3288 81.1907 10.1486 81.857 9.79108 82.459C9.43844 83.0611 8.95722 83.5423 8.3552 83.8998C7.75513 84.2524 7.08882 84.4307 6.35919 84.4307H0.750088V78.1874L0 77.4325L0.750088 76.6775V69.4786H5.64904C7.87787 69.4465 9.75309 71.3246 9.72094 73.5534V73.8028C9.72094 74.7701 9.40045 75.6664 8.85688 76.3892C9.77062 77.2396 10.3288 78.4436 10.3288 79.784ZM7.13265 80.1347V79.784C7.13265 79.3223 6.97192 78.9297 6.64656 78.6044C6.31827 78.279 5.92862 78.1183 5.47467 78.1183H3.94429V81.442H5.82438C6.18969 81.442 6.49849 81.3134 6.74689 81.0572C7.00407 80.801 7.13265 80.4942 7.13265 80.1347ZM6.72741 73.8019V73.6616C6.72741 73.3333 6.61344 73.0518 6.37672 72.8228C6.14488 72.5861 5.86335 72.4702 5.53799 72.4702H3.73875V75.1277H5.39771C5.76788 75.1277 6.08156 74.9991 6.33775 74.7429C6.5998 74.4808 6.72741 74.1672 6.72741 73.8019Z" fill="white"/>
</svg>
