<svg viewBox="0 0 25 25" fill="none" xmlns="http://www.w3.org/2000/svg">
<path d="M22.5001 17.4201V20.4201C22.5012 20.6986 22.4441 20.9743 22.3326 21.2294C22.221 21.4846 22.0574 21.7137 21.8521 21.902C21.6469 22.0902 21.4046 22.2336 21.1408 22.3228C20.877 22.412 20.5974 22.4452 20.3201 22.4201C17.2429 22.0857 14.2871 21.0342 11.6901 19.3501C9.27388 17.8148 7.22539 15.7663 5.69006 13.3501C4.00003 10.7413 2.9483 7.77109 2.62006 4.6801C2.59507 4.40356 2.62793 4.12486 2.71656 3.86172C2.80518 3.59859 2.94763 3.35679 3.13482 3.15172C3.32202 2.94665 3.54986 2.78281 3.80385 2.67062C4.05783 2.55843 4.3324 2.50036 4.61006 2.5001H7.61006C8.09536 2.49532 8.56585 2.66718 8.93382 2.98363C9.30179 3.30008 9.54213 3.73954 9.61005 4.2201C9.73668 5.18016 9.97151 6.12282 10.3101 7.0301C10.4446 7.38802 10.4737 7.77701 10.394 8.15098C10.3142 8.52494 10.1289 8.86821 9.86005 9.1401L8.59006 10.4101C10.0136 12.9136 12.0865 14.9865 14.5901 16.4101L15.8601 15.1401C16.1319 14.8712 16.4752 14.6859 16.8492 14.6062C17.2231 14.5264 17.6121 14.5556 17.9701 14.6901C18.8773 15.0286 19.82 15.2635 20.7801 15.3901C21.2658 15.4586 21.7095 15.7033 22.0266 16.0776C22.3437 16.4519 22.5122 16.9297 22.5001 17.4201Z" stroke="white" stroke-width="2" stroke-linecap="round" stroke-linejoin="round"/>
</svg>
