<svg viewBox="0 0 15 16" fill="none" xmlns="http://www.w3.org/2000/svg">
    <path d="M14.4996 11.4817V13.5893C14.5004 13.7849 14.4602 13.9786 14.3817 14.1578C14.3031 14.3371 14.1879 14.498 14.0435 14.6303C13.899 14.7626 13.7285 14.8633 13.5428 14.9259C13.3571 14.9886 13.1603 15.0119 12.965 14.9943C10.799 14.7594 8.7183 14.0207 6.89023 12.8376C5.18945 11.7589 3.74748 10.3198 2.66674 8.62243C1.4771 6.78969 0.736769 4.70306 0.505713 2.53156C0.488123 2.33729 0.511257 2.1415 0.573642 1.95664C0.636027 1.77178 0.736296 1.60191 0.868066 1.45785C0.999835 1.31378 1.16022 1.19868 1.339 1.11986C1.51779 1.04105 1.71106 1.00025 1.90651 1.00007H4.01826C4.35987 0.996713 4.69105 1.11744 4.95007 1.33976C5.20909 1.56208 5.37828 1.87081 5.42609 2.20841C5.51522 2.88287 5.68052 3.54511 5.91883 4.18249C6.01354 4.43394 6.03403 4.70721 5.97789 4.96993C5.92175 5.23265 5.79132 5.4738 5.60207 5.66481L4.70809 6.55701C5.71016 8.31581 7.1693 9.77206 8.93159 10.7721L9.82556 9.87994C10.017 9.69106 10.2586 9.56089 10.5218 9.50486C10.7851 9.44883 11.0589 9.46929 11.3108 9.56381C11.9495 9.80164 12.613 9.96662 13.2888 10.0556C13.6308 10.1037 13.9431 10.2756 14.1663 10.5386C14.3895 10.8015 14.5081 11.1372 14.4996 11.4817Z" stroke="#8D8D8D" stroke-linecap="round" stroke-linejoin="round"/>
</svg>
