<svg viewBox="0 0 768 768" fill="none" xmlns="http://www.w3.org/2000/svg">
<path d="M479.819 669.998C530.789 652.938 556.739 730.448 505.759 747.508C459.329 763.108 409.969 769.608 361.079 766.728C149.629 754.238 -11.8115 572.538 0.678534 361.089C13.1685 149.639 194.869 -11.8115 406.319 0.678495C617.769 13.1685 779.209 194.869 766.719 406.319C765.719 423.409 763.469 441.358 760.159 458.148C749.839 511.018 669.439 495.338 679.759 442.458C682.499 428.608 684.219 415.608 685.049 401.518C694.869 235.298 567.749 92.1685 401.519 82.3585C235.299 72.5385 92.1685 199.659 82.3585 365.889C72.5385 532.109 199.649 675.238 365.879 685.048C404.659 687.338 442.979 682.368 479.819 669.998Z" fill="black"/>
</svg>
